<?xml version="1.0" encoding="UTF-8" standalone="no"?>
<!-- Created with Inkscape (http://www.inkscape.org/) -->

<svg
   width="204mm"
   height="68mm"
   viewBox="0 0 204 68"
   version="1.1"
   id="svg5"
   sodipodi:docname="pieces-leipzig.svg"
   inkscape:version="1.2.2 (b0a8486541, 2022-12-01)"
   inkscape:export-filename="pieces-leipzig.png"
   inkscape:export-xdpi="300"
   inkscape:export-ydpi="300"
   xmlns:inkscape="http://www.inkscape.org/namespaces/inkscape"
   xmlns:sodipodi="http://sodipodi.sourceforge.net/DTD/sodipodi-0.dtd"
   xmlns="http://www.w3.org/2000/svg"
   xmlns:svg="http://www.w3.org/2000/svg">
  <sodipodi:namedview
     id="namedview7"
     pagecolor="#ffffff"
     bordercolor="#666666"
     borderopacity="1.0"
     inkscape:showpageshadow="2"
     inkscape:pageopacity="0.0"
     inkscape:pagecheckerboard="0"
     inkscape:deskcolor="#d1d1d1"
     inkscape:document-units="mm"
     showgrid="true"
     inkscape:zoom="1.3489973"
     inkscape:cx="306.15332"
     inkscape:cy="72.275904"
     inkscape:window-width="1920"
     inkscape:window-height="1011"
     inkscape:window-x="0"
     inkscape:window-y="0"
     inkscape:window-maximized="1"
     inkscape:current-layer="layer4"
     showguides="true">
    <inkscape:grid
       type="xygrid"
       id="grid500"
       originx="0"
       originy="0" />
    <sodipodi:guide
       position="34.33449,0.1616994"
       orientation="1,0"
       id="guide2482"
       inkscape:locked="false" />
    <sodipodi:guide
       position="68.505695,19.519386"
       orientation="1,0"
       id="guide2484"
       inkscape:locked="false" />
  </sodipodi:namedview>
  <defs
     id="defs2">
    <rect
       x="86.618706"
       y="281.20789"
       width="574.77563"
       height="433.62701"
       id="rect186" />
  </defs>
  <g
     inkscape:groupmode="layer"
     id="layer2"
     inkscape:label="background"
     style="display:none"
     sodipodi:insensitive="true">
    <rect
       style="fill:#c4c4c4;fill-opacity:1;stroke:none;stroke-width:3.61157;stroke-linecap:round;stroke-linejoin:round"
       id="rect1128"
       width="204"
       height="68"
       x="0"
       y="0" />
    <rect
       style="fill:#000000;fill-opacity:1;stroke:none;stroke-width:3.59576;stroke-linecap:round;stroke-linejoin:round"
       id="rect2540"
       width="34"
       height="7.3039174"
       x="-0.036323223"
       y="72.048599" />
    <rect
       style="fill:#000000;fill-opacity:1;stroke:none;stroke-width:3.59576;stroke-linecap:round;stroke-linejoin:round"
       id="rect2542"
       width="34"
       height="7.3039174"
       x="34.359509"
       y="72.048599" />
    <rect
       style="fill:#000000;fill-opacity:1;stroke:none;stroke-width:3.59576;stroke-linecap:round;stroke-linejoin:round"
       id="rect2544"
       width="34"
       height="7.3039174"
       x="68.755341"
       y="72.048599" />
    <rect
       style="fill:#000000;fill-opacity:1;stroke:none;stroke-width:3.59576;stroke-linecap:round;stroke-linejoin:round"
       id="rect2546"
       width="34"
       height="7.3039174"
       x="103.15115"
       y="72.048599" />
    <rect
       style="fill:#000000;fill-opacity:1;stroke:none;stroke-width:3.59576;stroke-linecap:round;stroke-linejoin:round"
       id="rect2548"
       width="34"
       height="7.3039174"
       x="137.54703"
       y="72.048599" />
    <rect
       style="fill:#000000;fill-opacity:1;stroke:none;stroke-width:3.59576;stroke-linecap:round;stroke-linejoin:round"
       id="rect2550"
       width="34"
       height="7.3039174"
       x="170.35538"
       y="72.048599" />
  </g>
  <g
     inkscape:groupmode="layer"
     id="layer4"
     inkscape:label="masks">
    <path
       d="m 26.275502,23.908246 c 0.07569,0.227073 0.113528,0.44333 0.113528,0.64877 0,0.637967 -0.232477,1.129957 -0.69743,1.47597 -0.04324,0.18382 -0.07568,0.36764 -0.09732,0.55146 0.400081,0.562267 0.600121,1.016407 0.600121,1.36242 0,0.908293 -0.875846,1.686827 -2.627539,2.3356 -1.751698,0.648773 -3.854813,0.97316 -6.309346,0.97316 -2.465343,0 -4.573863,-0.324387 -6.32556,-0.97316 -1.7408811,-0.648773 -2.6113211,-1.427307 -2.6113211,-2.3356 0,-0.35682 0.210852,-0.821773 0.632556,-1.39486 -0.02163,-0.11894 -0.05407,-0.28654 -0.09732,-0.5028 -0.475769,-0.346013 -0.713653,-0.84341 -0.713653,-1.49219 0,-0.20544 0.03244,-0.41629 0.09732,-0.63255 0.108129,-0.270327 0.0865,-0.48118 -0.06488,-0.63256 -0.151381,-0.15138 -0.324388,-0.36223 -0.51902,-0.63255 -0.173007,-0.540653 -0.25951,-0.9137 -0.25951,-1.11914 0.01081,-0.09731 0.02703,-0.205443 0.04866,-0.32439 0.03244,-0.11894 0.04866,-0.259507 0.04866,-0.4217 -0.475769,-0.475767 -0.973164,-0.924503 -1.492185,-1.34621 -0.508207,-0.432517 -0.908285,-0.951537 -1.200234,-1.557058 -0.346014,-0.713652 -0.664996,-1.432713 -0.956945,-2.157182 -0.281136,-0.735276 -0.421704,-1.454334 -0.421704,-2.157173 0,-1.329993 0.35142,-2.454538 1.054261,-3.373633 0.70284,-0.9191004 1.654377,-1.6381601 2.854612,-2.1571808 1.600313,-0.108128 2.276121,-0.162192 2.027424,-0.162192 1.8814501,0 3.5898941,0.6974327 5.1253311,2.0922991 v -5.693003 h 5.530805 v 5.709222 c 1.535437,-1.4056784 3.254693,-2.1085181 5.157768,-2.1085181 -0.270323,0 0.405486,0.05406 2.027427,0.162192 1.178605,0.5190207 2.119328,1.2380814 2.822167,2.1571818 0.713657,0.919095 1.070486,2.043639 1.070486,3.373632 0,0.70284 -0.145976,1.416492 -0.437929,2.140956 -0.281135,0.724464 -0.589303,1.443525 -0.924504,2.157182 -0.291947,0.616333 -0.69743,1.151572 -1.216451,1.605715 -0.519021,0.45414 -1.011011,0.908283 -1.47597,1.36243 -0.01079,0.129753 -0.0054,0.2541 0.01619,0.37304 0.03244,0.118947 0.05406,0.227077 0.06486,0.32439 0.01079,0.15138 -0.07571,0.524427 -0.259511,1.11914 -0.194631,0.27032 -0.367637,0.48117 -0.51902,0.63255 -0.14057,0.15138 -0.16219,0.356827 -0.06486,0.61634 z"
       id="path4262"
       style="font-size:40px;line-height:1.25;font-family:'Chess Leipzig';-inkscape-font-specification:'Chess Leipzig';white-space:pre;fill:#ffffff;stroke:#ffffff;stroke-width:3;stroke-dasharray:none;stroke-opacity:1"
       sodipodi:nodetypes="csccssscsccscscccccccsscccccccccsccsccccccc" />
    <path
       d="m 26.275502,56.7166 c 0.07569,0.227073 0.113528,0.44333 0.113528,0.64877 0,0.637967 -0.232477,1.129957 -0.69743,1.47597 -0.04324,0.18382 -0.07568,0.36764 -0.09732,0.55146 0.400081,0.562267 0.600121,1.016407 0.600121,1.36242 0,0.908293 -0.875846,1.686827 -2.627539,2.3356 -1.751698,0.648773 -3.854813,0.97316 -6.309346,0.97316 -2.465343,0 -4.573863,-0.324387 -6.32556,-0.97316 -1.7408811,-0.648773 -2.6113211,-1.427307 -2.6113211,-2.3356 0,-0.35682 0.210852,-0.821773 0.632556,-1.39486 -0.02163,-0.11894 -0.05407,-0.28654 -0.09732,-0.5028 -0.475769,-0.346013 -0.713653,-0.84341 -0.713653,-1.49219 0,-0.20544 0.03244,-0.41629 0.09732,-0.63255 0.108129,-0.270327 0.0865,-0.48118 -0.06488,-0.63256 -0.151381,-0.15138 -0.324388,-0.36223 -0.51902,-0.63255 -0.173007,-0.540653 -0.25951,-0.9137 -0.25951,-1.11914 0.01081,-0.09731 0.02703,-0.205443 0.04866,-0.32439 0.03244,-0.11894 0.04866,-0.259507 0.04866,-0.4217 -0.475769,-0.475767 -0.973164,-0.924503 -1.492185,-1.34621 -0.508207,-0.432517 -0.908285,-0.951537 -1.200234,-1.557058 -0.346014,-0.713652 -0.664996,-1.432713 -0.956945,-2.157182 -0.281136,-0.735276 -0.421704,-1.454334 -0.421704,-2.157173 0,-1.329993 0.35142,-2.454538 1.054261,-3.373633 0.70284,-0.919101 1.654377,-1.638161 2.854612,-2.157182 1.600313,-0.108128 2.276121,-0.162192 2.027424,-0.162192 1.8814501,0 3.5898941,0.697433 5.1253311,2.0923 v -5.693006 h 5.530805 v 5.709225 c 1.535437,-1.405679 3.254693,-2.108519 5.157768,-2.108519 -0.270323,0 0.405486,0.05406 2.027427,0.162192 1.178605,0.519021 2.119328,1.238082 2.822167,2.157183 0.713657,0.919095 1.070486,2.043639 1.070486,3.373632 0,0.70284 -0.145976,1.416492 -0.437929,2.140956 -0.281135,0.724464 -0.589303,1.443525 -0.924504,2.157182 -0.291947,0.616333 -0.69743,1.151572 -1.216451,1.605715 -0.519021,0.45414 -1.011011,0.908283 -1.47597,1.36243 -0.01079,0.129753 -0.0054,0.2541 0.01619,0.37304 0.03244,0.118947 0.05406,0.227077 0.06486,0.32439 0.01079,0.15138 -0.07571,0.524427 -0.259511,1.11914 -0.194631,0.27032 -0.367637,0.48117 -0.51902,0.63255 -0.14057,0.15138 -0.16219,0.356827 -0.06486,0.61634 z"
       id="path4105"
       style="font-size:40px;line-height:1.25;font-family:'Chess Leipzig';-inkscape-font-specification:'Chess Leipzig';white-space:pre;fill:#ffffff;stroke:#ffffff;stroke-width:3;stroke-opacity:1;stroke-dasharray:none"
       sodipodi:nodetypes="csccssscsccscscccccccsscccccccccsccsccccccc" />
    <path
       d="m 51.985413,39.912276 0.486584,5.255087 0.519019,5.222641 c 0.01079,0.248697 0.135142,0.373046 0.373047,0.373046 0.173007,-0.01079 0.29195,-0.08649 0.356829,-0.227074 0.94072,-2.270713 1.632747,-4.027814 2.076082,-5.271304 0.454142,-1.254297 0.729871,-2.027421 0.827186,-2.319373 -0.497396,-0.475767 -0.746094,-1.011006 -0.746094,-1.605717 0,-0.519021 0.183819,-0.96235 0.551457,-1.329988 0.378456,-0.378456 0.8326,-0.567684 1.362433,-0.567684 0.51902,0 0.962349,0.189228 1.329987,0.567684 0.378456,0.367638 0.567684,0.810967 0.567684,1.329988 0,0.940726 -0.486584,1.578689 -1.459752,1.91389 l -1.184013,7.071649 c -0.05403,0.324389 0.0595,0.486584 0.34061,0.486584 0.227068,0 0.400075,-0.05947 0.519021,-0.17841 1.29755,-1.297551 2.22746,-2.303156 2.78973,-3.016813 0.573086,-0.713651 0.973167,-1.211044 1.200241,-1.492179 -0.237886,-0.313577 -0.356829,-0.692031 -0.356829,-1.13536 0,-1.265109 0.632554,-1.897663 1.897663,-1.897663 0.51902,0 0.962352,0.189225 1.329996,0.567676 0.37845,0.367638 0.567675,0.810967 0.567675,1.329987 0,0.529833 -0.189225,0.978571 -0.567675,1.346215 -0.367644,0.367638 -0.810976,0.551457 -1.329996,0.551457 -0.162189,0 -0.308162,-0.01622 -0.43792,-0.04866 -0.865034,1.870638 -1.557062,3.784528 -2.076082,5.74167 -0.44333,1.5895 -0.719058,3.097903 -0.827186,4.52521 0.06487,0.30276 0.102719,0.459547 0.113537,0.47036 -0.03244,-0.129753 -0.01082,-0.0054 0.06486,0.37305 0.04324,0.173007 0.06486,0.340607 0.06486,0.5028 -0.06488,0.173007 -0.200044,0.367637 -0.405492,0.58389 -0.18382,0.205447 -0.318981,0.610933 -0.405484,1.21646 0.40008,0.562267 0.600121,1.016407 0.600121,1.36242 0,0.908293 -0.875846,1.686827 -2.627538,2.3356 -1.751699,0.648773 -3.854814,0.97316 -6.309346,0.97316 -2.465344,0 -4.573865,-0.324387 -6.325563,-0.97316 -1.740881,-0.648773 -2.611321,-1.427307 -2.611321,-2.3356 0,-0.35682 0.210852,-0.821773 0.632556,-1.39486 -0.129752,-0.61634 -0.270319,-1.011013 -0.421702,-1.18402 -0.216261,-0.216253 -0.356828,-0.410883 -0.421701,-0.58389 0,-0.140573 0.01622,-0.30277 0.04866,-0.48659 0.02165,-0.0865 0.03787,-0.16219 0.04866,-0.22707 0.01079,-0.07569 0.02162,-0.12975 0.03247,-0.16219 0.04324,-0.11894 0.08649,-0.28654 0.129755,-0.5028 -0.108133,-1.362427 -0.373052,-2.860017 -0.794757,-4.49277 -0.56227,-2.054458 -1.259704,-3.979161 -2.092301,-5.774108 -0.183819,0.05409 -0.373044,0.08113 -0.567675,0.08113 -1.265115,0 -1.897672,-0.632557 -1.897672,-1.897672 0,-1.265109 0.632557,-1.897664 1.897672,-1.897664 1.265114,0 1.897671,0.632555 1.897671,1.897664 0,0.389268 -0.09732,0.740688 -0.291955,1.05426 0.637966,0.810973 1.275929,1.567879 1.913889,2.270718 0.648779,0.692027 1.362434,1.454337 2.140965,2.286929 0.09732,0.140569 0.237883,0.210854 0.421702,0.210854 0.313571,0 0.454139,-0.162194 0.421702,-0.486583 -0.02165,-0.09732 -0.156808,-0.87044 -0.405484,-2.319373 -0.248698,-1.448929 -0.51902,-3.027615 -0.810967,-4.736058 -1.027229,-0.281135 -1.540844,-0.924504 -1.540844,-1.930108 0,-0.519021 0.183819,-0.96235 0.551457,-1.329988 0.378451,-0.378456 0.827186,-0.567684 1.346207,-0.567684 1.265115,0 1.897672,0.632557 1.897672,1.897672 0,0.562275 -0.216259,1.075889 -0.648776,1.540842 0.05409,0.227073 0.189248,0.681215 0.405484,1.362425 0.216261,0.670403 0.551463,1.557065 1.005604,2.659984 0.248698,0.605523 0.497396,1.216453 0.746093,1.832789 0.25951,0.605525 0.51902,1.205643 0.778531,1.800354 0.06487,0.14057 0.178408,0.210855 0.340603,0.210855 0.227073,-0.01079 0.356828,-0.129736 0.389265,-0.356829 0.02165,-0.129758 0.351442,-3.616928 0.989386,-10.461509 -0.767719,-0.410893 -1.151578,-1.021823 -1.151578,-1.83279 0,-0.51902 0.183819,-0.967755 0.551457,-1.346206 0.367644,-0.378456 0.816382,-0.567684 1.346215,-0.567684 0.51902,0 0.962349,0.189228 1.329988,0.567684 0.378449,0.378451 0.567674,0.827187 0.567674,1.346206 0,0.735282 -0.351419,1.340806 -1.054258,1.816572 z"
       id="path400-3"
       style="font-size:40px;line-height:1.25;font-family:'Chess Leipzig';-inkscape-font-specification:'Chess Leipzig';white-space:pre;fill:#ffffff;stroke:#ffffff;stroke-width:3;stroke-dasharray:none;stroke-opacity:1"
       sodipodi:nodetypes="cccccccssscsccscccsscscsccccccccssscscccccccccsssscccscccssssccccccccssscscc" />
    <path
       d="m 51.985413,7.1039238 0.486584,5.2550852 0.519019,5.222641 c 0.01079,0.248697 0.135142,0.373046 0.373047,0.373046 0.173007,-0.01079 0.29195,-0.08649 0.356829,-0.227074 0.94072,-2.270713 1.632747,-4.027814 2.076082,-5.271304 0.454142,-1.254297 0.729871,-2.027421 0.827186,-2.319373 -0.497396,-0.4757667 -0.746094,-1.0110054 -0.746094,-1.6057161 0,-0.5190207 0.183819,-0.9623494 0.551457,-1.3299871 0.378456,-0.3784557 0.8326,-0.5676837 1.362433,-0.5676837 0.51902,0 0.962349,0.189228 1.329987,0.5676837 0.378456,0.3676377 0.567684,0.8109664 0.567684,1.3299871 0,0.9407254 -0.486584,1.5786881 -1.459752,1.9138891 l -1.184013,7.071649 c -0.05403,0.324389 0.0595,0.486584 0.34061,0.486584 0.227068,0 0.400075,-0.05947 0.519021,-0.17841 1.29755,-1.297551 2.22746,-2.303156 2.78973,-3.016813 0.573086,-0.713651 0.973167,-1.211044 1.200241,-1.492179 -0.237886,-0.313577 -0.356829,-0.692031 -0.356829,-1.13536 0,-1.265109 0.632554,-1.897663 1.897663,-1.897663 0.51902,0 0.962352,0.189225 1.329996,0.567676 0.37845,0.367638 0.567675,0.810967 0.567675,1.329987 0,0.529833 -0.189225,0.978571 -0.567675,1.346215 -0.367644,0.367638 -0.810976,0.551457 -1.329996,0.551457 -0.162189,0 -0.308162,-0.01622 -0.43792,-0.04866 -0.865034,1.870638 -1.557062,3.784528 -2.076082,5.74167 -0.44333,1.5895 -0.719058,3.097903 -0.827186,4.52521 0.06487,0.30276 0.102719,0.459547 0.113537,0.47036 -0.03244,-0.129753 -0.01082,-0.0054 0.06486,0.37305 0.04324,0.173007 0.06486,0.340607 0.06486,0.5028 -0.06488,0.173007 -0.200044,0.367637 -0.405492,0.58389 -0.18382,0.205447 -0.318981,0.610933 -0.405484,1.21646 0.40008,0.562267 0.600121,1.016407 0.600121,1.36242 0,0.908293 -0.875846,1.686827 -2.627538,2.3356 -1.751699,0.648773 -3.854814,0.97316 -6.309346,0.97316 -2.465344,0 -4.573865,-0.324387 -6.325563,-0.97316 -1.740881,-0.648773 -2.611321,-1.427307 -2.611321,-2.3356 0,-0.35682 0.210852,-0.821773 0.632556,-1.39486 -0.129752,-0.61634 -0.270319,-1.011013 -0.421702,-1.18402 -0.216261,-0.216253 -0.356828,-0.410883 -0.421701,-0.58389 0,-0.140573 0.01622,-0.30277 0.04866,-0.48659 0.02165,-0.0865 0.03787,-0.16219 0.04866,-0.22707 0.01079,-0.07569 0.02162,-0.12975 0.03247,-0.16219 0.04324,-0.11894 0.08649,-0.28654 0.129755,-0.5028 -0.108133,-1.362427 -0.373052,-2.860017 -0.794757,-4.49277 -0.56227,-2.054458 -1.259704,-3.979161 -2.092301,-5.774108 -0.183819,0.05409 -0.373044,0.08113 -0.567675,0.08113 -1.265115,0 -1.897672,-0.632557 -1.897672,-1.897672 0,-1.265109 0.632557,-1.897664 1.897672,-1.897664 1.265114,0 1.897671,0.632555 1.897671,1.897664 0,0.389268 -0.09732,0.740688 -0.291955,1.05426 0.637966,0.810973 1.275929,1.567879 1.913889,2.270718 0.648779,0.692027 1.362434,1.454337 2.140965,2.286929 0.09732,0.140569 0.237883,0.210854 0.421702,0.210854 0.313571,0 0.454139,-0.162194 0.421702,-0.486583 -0.02165,-0.09732 -0.156808,-0.87044 -0.405484,-2.319373 -0.248698,-1.448929 -0.51902,-3.027615 -0.810967,-4.736058 -1.027229,-0.281135 -1.540844,-0.9245037 -1.540844,-1.9301071 0,-0.5190207 0.183819,-0.9623494 0.551457,-1.3299871 0.378451,-0.3784557 0.827186,-0.5676837 1.346207,-0.5676837 1.265115,0 1.897672,0.6325567 1.897672,1.8976708 0,0.5622747 -0.216259,1.0758884 -0.648776,1.5408411 0.05409,0.227073 0.189248,0.681215 0.405484,1.362425 0.216261,0.670403 0.551463,1.557065 1.005604,2.659984 0.248698,0.605523 0.497396,1.216453 0.746093,1.832789 0.25951,0.605525 0.51902,1.205643 0.778531,1.800354 0.06487,0.14057 0.178408,0.210855 0.340603,0.210855 0.227073,-0.01079 0.356828,-0.129736 0.389265,-0.356829 0.02165,-0.129758 0.351442,-3.616928 0.989386,-10.4615072 -0.767719,-0.4108927 -1.151578,-1.0218224 -1.151578,-1.8327891 0,-0.5190197 0.183819,-0.9677544 0.551457,-1.3462051 0.367644,-0.3784557 0.816382,-0.5676837 1.346215,-0.5676837 0.51902,0 0.962349,0.189228 1.329988,0.5676837 0.378449,0.3784507 0.567674,0.8271864 0.567674,1.3462051 0,0.7352817 -0.351419,1.3408054 -1.054258,1.8165711 z"
       id="path4294"
       style="font-size:40px;line-height:1.25;font-family:'Chess Leipzig';-inkscape-font-specification:'Chess Leipzig';white-space:pre;fill:#ffffff;stroke:#ffffff;stroke-width:3;stroke-dasharray:none;stroke-opacity:1"
       sodipodi:nodetypes="cccccccssscsccscccsscscsccccccccssscscccccccccsssscccscccssssccccccccssscscc" />
    <path
       d="m 85.012996,36.171491 h 2.238274 v 2.205837 h 3.357414 v -2.205837 h 3.860217 v 5.790325 L 91.85758,44.97862 c 0.562269,0.713652 0.573093,1.465152 0.03247,2.254501 -0.0865,0.140564 -0.129755,0.270319 -0.129755,0.389265 0,0.140565 0.04325,0.275726 0.129755,0.405484 0.227074,0.335201 0.335205,0.81097 0.324392,1.427306 0,0.605524 -0.113537,1.081293 -0.34061,1.427306 -0.07569,0.108128 -0.113537,0.221662 -0.113537,0.340602 0,0.151383 0.04866,0.291953 0.145974,0.42171 0.508208,0.767714 0.497385,1.524618 -0.03247,2.270711 -0.07569,0.129753 -0.113537,0.2541 -0.113537,0.37304 0,0.11894 0.03785,0.24329 0.113537,0.37305 0.237885,0.356827 0.356828,0.85422 0.356828,1.49218 0,0.627153 -0.129755,1.09211 -0.389265,1.39487 l 2.627539,1.31377 v 1.39487 h 1.086694 v 4.70362 H 85.012996 74.454177 v -4.6874 h 1.102914 v -1.39487 l 2.611321,-1.32999 c -0.25951,-0.30276 -0.389265,-0.767717 -0.389265,-1.39487 0,-0.627147 0.118943,-1.119133 0.356828,-1.47596 0.0865,-0.11894 0.129755,-0.24329 0.129755,-0.37305 0,-0.108127 -0.04325,-0.232477 -0.129755,-0.37305 -0.529833,-0.7569 -0.535229,-1.513801 -0.01619,-2.270702 0.09731,-0.173007 0.145973,-0.313578 0.145973,-0.421711 0,-0.108127 -0.03785,-0.227067 -0.113536,-0.35682 -0.237886,-0.346013 -0.362235,-0.821782 -0.373047,-1.427306 0,-0.616336 0.113537,-1.092105 0.34061,-1.427306 0.09731,-0.129758 0.145973,-0.264919 0.145973,-0.405484 0,-0.118946 -0.04325,-0.243295 -0.129755,-0.373047 -0.551457,-0.789343 -0.540634,-1.546249 0.03247,-2.270719 l -2.61132,-3.000586 v -5.790325 h 3.860216 v 2.189619 l 3.341196,0.01619 v -2.205836 z"
       id="path402-6"
       style="font-size:40px;line-height:1.25;font-family:'Chess Leipzig';-inkscape-font-specification:'Chess Leipzig';white-space:pre;fill:#ffffff;stroke:#ffffff;stroke-width:3;stroke-dasharray:none;stroke-opacity:1"
       sodipodi:nodetypes="cccccccccscccsccscscccccccccccscsccscccsccccccccc" />
    <path
       d="m 118.91213,63.186694 c -0.80015,1.15698 -1.88144,1.73547 -3.24387,1.73547 -0.14056,0 -0.28113,-0.0054 -0.42171,-0.0162 -0.12975,-0.02167 -0.2595,-0.0379 -0.38926,-0.0487 -0.31358,-0.0108 -0.77313,-0.06487 -1.37865,-0.1622 -0.60552,-0.108127 -1.28133,-0.351413 -2.02742,-0.72986 -0.65959,-0.573093 -1.49759,-0.85964 -2.51401,-0.85964 -0.77853,0 -1.45434,0.18382 -2.02742,0.55146 -0.16219,0.07569 -0.36223,0.232483 -0.60012,0.47037 -0.43252,0.464953 -0.78394,0.719057 -1.05426,0.76231 -0.21626,-0.108127 -0.32979,-0.291947 -0.34061,-0.55146 -0.054,-0.508207 0.31905,-1.162387 1.11914,-1.96254 -0.14056,0.02167 -0.40548,0.08654 -0.79475,0.19463 -0.32438,0.09731 -0.54064,0.14597 -0.64877,0.14597 -0.35682,0.05407 -0.54605,0.05947 -0.56769,0.0162 -0.11894,-0.11894 -0.0757,-0.362227 0.12976,-0.72986 0.17301,-0.31358 0.50821,-0.589313 1.0056,-0.8272 0.0649,-0.03247 0.27032,-0.124377 0.61634,-0.27573 1.00561,-0.529833 2.05987,-0.79475 3.16278,-0.79475 1.61113,0 3.06547,0.546057 4.36302,1.63817 0.51902,0.173007 1.04345,0.25951 1.57328,0.25951 1.62194,0 2.45994,-0.670403 2.514,-2.01121 -1.04885,-0.09732 -1.9247,-0.275733 -2.62754,-0.53524 -0.69202,-0.259513 -1.03804,-0.562277 -1.03804,-0.90829 l 1.29755,-4.31435 c -0.7569,-1.189427 -1.38405,-2.400475 -1.88145,-3.633145 -0.49739,-1.232672 -0.74609,-2.400468 -0.74609,-3.503388 0,-3.308754 1.79495,-5.849792 5.38483,-7.623115 0,-0.14057 0.0162,-0.351422 0.0487,-0.632557 -0.36764,-0.302759 -0.55146,-0.686619 -0.55146,-1.151578 0,-0.994786 0.5028,-1.492179 1.5084,-1.492179 0.9948,0 1.49219,0.497393 1.49219,1.492179 0,0.432517 -0.15679,0.794752 -0.47037,1.086704 0,0.335201 0.0433,0.562272 0.12976,0.681213 0.18382,0.25951 0.42711,0.394671 0.72987,0.405483 0.31358,-0.01079 0.57309,-0.151361 0.77853,-0.421702 0.0433,-0.06488 0.0865,-0.26492 0.12976,-0.60012 -0.28114,-0.291947 -0.42171,-0.654179 -0.42171,-1.086696 0,-1.016417 0.50821,-1.524625 1.52462,-1.524625 1.01642,0 1.52463,0.508208 1.52463,1.524625 0,0.573081 -0.2487,1.016411 -0.7461,1.329988 -0.0433,0.216261 -0.0541,0.389268 -0.0325,0.51902 1.82739,2.162585 2.62214,4.660372 2.38425,7.49336 -0.0757,0.810967 -0.20004,1.611122 -0.37305,2.400465 -0.173,0.778531 -0.47576,1.51381 -0.90828,2.205837 -0.16219,0.367641 -0.41629,0.783938 -0.76231,1.248891 -0.3352,0.454147 -0.62715,0.88126 -0.87585,1.28134 l 1.28134,4.31435 c -0.0108,0.346013 -0.36763,0.648777 -1.07049,0.90829 -0.70284,0.259507 -1.5895,0.43792 -2.65998,0.53524 0.0541,1.340807 0.89748,2.01121 2.53022,2.01121 0.52984,0 1.05427,-0.0865 1.57329,-0.25951 1.28674,-1.092113 2.74107,-1.63817 4.36301,-1.63817 1.10292,0 2.15178,0.264917 3.14656,0.79475 0.12976,0.06487 0.2433,0.11893 0.34061,0.16219 0.0973,0.04327 0.19464,0.08111 0.29195,0.11354 0.48659,0.2487 0.82179,0.524433 1.0056,0.8272 0.0325,0.09731 0.0811,0.22166 0.14598,0.37304 0.0649,0.15138 0.0595,0.27032 -0.0162,0.35682 -0.0325,0.04327 -0.22169,0.03787 -0.56767,-0.0162 -0.10813,0 -0.32439,-0.04866 -0.64878,-0.14597 -0.40008,-0.108133 -0.6704,-0.17301 -0.81097,-0.19463 0.80016,0.810967 1.17862,1.465147 1.13536,1.96254 -0.0217,0.2487 -0.14061,0.43252 -0.35683,0.55146 -0.27032,-0.04327 -0.62174,-0.29737 -1.05426,-0.76231 -0.21625,-0.21626 -0.41088,-0.37305 -0.5839,-0.47037 -0.60552,-0.36764 -1.28132,-0.55146 -2.02742,-0.55146 -1.03804,0 -1.88144,0.286547 -2.53022,0.85964 -0.74609,0.378447 -1.4219,0.621733 -2.02743,0.72986 -0.60552,0.09732 -1.05966,0.151387 -1.36242,0.1622 -0.12976,0.0108 -0.26492,0.02703 -0.4055,0.0487 -0.14056,0.0108 -0.27572,0.0162 -0.40548,0.0162 -1.39486,0 -2.48156,-0.57849 -3.2601,-1.73547 z"
       id="path404-7"
       style="font-size:40px;line-height:1.25;font-family:'Chess Leipzig';-inkscape-font-specification:'Chess Leipzig';white-space:pre;fill:#ffffff;stroke:#ffffff;stroke-width:3;stroke-dasharray:none;stroke-opacity:1"
       sodipodi:nodetypes="ssccccscccccccccccscsccccssccssscccccsssccccccccscscscsccsccccccccsccccsss" />
    <path
       d="m 118.91213,30.427391 c -0.80015,1.15698 -1.88144,1.73547 -3.24387,1.73547 -0.14056,0 -0.28113,-0.0054 -0.42171,-0.0162 -0.12975,-0.02167 -0.2595,-0.0379 -0.38926,-0.0487 -0.31358,-0.0108 -0.77313,-0.06487 -1.37865,-0.1622 -0.60552,-0.108127 -1.28133,-0.351413 -2.02742,-0.72986 -0.65959,-0.573093 -1.49759,-0.85964 -2.51401,-0.85964 -0.77853,0 -1.45434,0.18382 -2.02742,0.55146 -0.16219,0.07569 -0.36223,0.232483 -0.60012,0.47037 -0.43252,0.464953 -0.78394,0.719057 -1.05426,0.76231 -0.21626,-0.108127 -0.32979,-0.291947 -0.34061,-0.55146 -0.054,-0.508207 0.31905,-1.162387 1.11914,-1.96254 -0.14056,0.02167 -0.40548,0.08654 -0.79475,0.19463 -0.32438,0.09731 -0.54064,0.14597 -0.64877,0.14597 -0.35682,0.05407 -0.54605,0.05947 -0.56769,0.0162 -0.11894,-0.11894 -0.0757,-0.362227 0.12976,-0.72986 0.17301,-0.31358 0.50821,-0.589313 1.0056,-0.8272 0.0649,-0.03247 0.27032,-0.124377 0.61634,-0.27573 1.00561,-0.529833 2.05987,-0.79475 3.16278,-0.79475 1.61113,0 3.06547,0.546057 4.36302,1.63817 0.51902,0.173007 1.04345,0.25951 1.57328,0.25951 1.62194,0 2.45994,-0.670403 2.514,-2.01121 -1.04885,-0.09732 -1.9247,-0.275733 -2.62754,-0.53524 -0.69202,-0.259513 -1.03804,-0.562277 -1.03804,-0.90829 l 1.29755,-4.31435 c -0.7569,-1.189427 -1.38405,-2.400475 -1.88145,-3.633145 -0.49739,-1.232672 -0.74609,-2.400468 -0.74609,-3.503388 0,-3.308754 1.79495,-5.8497908 5.38483,-7.6231138 0,-0.14057 0.0162,-0.351422 0.0487,-0.632557 -0.36764,-0.302759 -0.55146,-0.686619 -0.55146,-1.151578 0,-0.994786 0.5028,-1.4921787 1.5084,-1.4921787 0.9948,0 1.49219,0.4973927 1.49219,1.4921787 0,0.432517 -0.15679,0.794752 -0.47037,1.086704 0,0.335201 0.0433,0.562272 0.12976,0.681213 0.18382,0.25951 0.42711,0.394671 0.72987,0.405483 0.31358,-0.01079 0.57309,-0.151361 0.77853,-0.421702 0.0433,-0.06488 0.0865,-0.26492 0.12976,-0.60012 -0.28114,-0.291947 -0.42171,-0.654179 -0.42171,-1.086696 0,-1.016417 0.50821,-1.5246247 1.52462,-1.5246247 1.01642,0 1.52463,0.5082077 1.52463,1.5246247 0,0.573081 -0.2487,1.016411 -0.7461,1.329988 -0.0433,0.216261 -0.0541,0.389268 -0.0325,0.51902 1.82739,2.1625847 2.62214,4.6603708 2.38425,7.4933588 -0.0757,0.810967 -0.20004,1.611122 -0.37305,2.400465 -0.173,0.778531 -0.47576,1.51381 -0.90828,2.205837 -0.16219,0.367641 -0.41629,0.783938 -0.76231,1.248891 -0.3352,0.454147 -0.62715,0.88126 -0.87585,1.28134 l 1.28134,4.31435 c -0.0108,0.346013 -0.36763,0.648777 -1.07049,0.90829 -0.70284,0.259507 -1.5895,0.43792 -2.65998,0.53524 0.0541,1.340807 0.89748,2.01121 2.53022,2.01121 0.52984,0 1.05427,-0.0865 1.57329,-0.25951 1.28674,-1.092113 2.74107,-1.63817 4.36301,-1.63817 1.10292,0 2.15178,0.264917 3.14656,0.79475 0.12976,0.06487 0.2433,0.11893 0.34061,0.16219 0.0973,0.04327 0.19464,0.08111 0.29195,0.11354 0.48659,0.2487 0.82179,0.524433 1.0056,0.8272 0.0325,0.09731 0.0811,0.22166 0.14598,0.37304 0.0649,0.15138 0.0595,0.27032 -0.0162,0.35682 -0.0325,0.04327 -0.22169,0.03787 -0.56767,-0.0162 -0.10813,0 -0.32439,-0.04866 -0.64878,-0.14597 -0.40008,-0.108133 -0.6704,-0.17301 -0.81097,-0.19463 0.80016,0.810967 1.17862,1.465147 1.13536,1.96254 -0.0217,0.2487 -0.14061,0.43252 -0.35683,0.55146 -0.27032,-0.04327 -0.62174,-0.29737 -1.05426,-0.76231 -0.21625,-0.21626 -0.41088,-0.37305 -0.5839,-0.47037 -0.60552,-0.36764 -1.28132,-0.55146 -2.02742,-0.55146 -1.03804,0 -1.88144,0.286547 -2.53022,0.85964 -0.74609,0.378447 -1.4219,0.621733 -2.02743,0.72986 -0.60552,0.09732 -1.05966,0.151387 -1.36242,0.1622 -0.12976,0.0108 -0.26492,0.02703 -0.4055,0.0487 -0.14056,0.0108 -0.27572,0.0162 -0.40548,0.0162 -1.39486,0 -2.48156,-0.57849 -3.2601,-1.73547 z"
       id="path4459"
       style="font-size:40px;line-height:1.25;font-family:'Chess Leipzig';-inkscape-font-specification:'Chess Leipzig';white-space:pre;fill:#ffffff;stroke:#ffffff;stroke-width:3;stroke-dasharray:none;stroke-opacity:1"
       sodipodi:nodetypes="ssccccscccccccccccscsccccssccssscccccsssccccccccscscscsccsccccccccsccccsss" />
    <path
       d="m 85.012996,3.3631562 h 2.238274 v 2.2058367 h 3.357414 V 3.3631562 h 3.860217 V 9.1534806 L 91.85758,12.170284 c 0.562269,0.713652 0.573093,1.465152 0.03247,2.254501 -0.0865,0.140564 -0.129755,0.270319 -0.129755,0.389265 0,0.140565 0.04325,0.275726 0.129755,0.405484 0.227074,0.335201 0.335205,0.81097 0.324392,1.427306 0,0.605524 -0.113537,1.081293 -0.34061,1.427306 -0.07569,0.108128 -0.113537,0.221662 -0.113537,0.340602 0,0.151383 0.04866,0.291953 0.145974,0.42171 0.508208,0.767714 0.497385,1.524618 -0.03247,2.270711 -0.07569,0.129753 -0.113537,0.2541 -0.113537,0.37304 0,0.11894 0.03785,0.24329 0.113537,0.37305 0.237885,0.356827 0.356828,0.85422 0.356828,1.49218 0,0.627153 -0.129755,1.09211 -0.389265,1.39487 l 2.627539,1.31377 v 1.39487 h 1.086694 v 4.70362 H 85.012996 74.454177 v -4.6874 h 1.102914 v -1.39487 l 2.611321,-1.32999 c -0.25951,-0.30276 -0.389265,-0.767717 -0.389265,-1.39487 0,-0.627147 0.118943,-1.119133 0.356828,-1.47596 0.0865,-0.11894 0.129755,-0.24329 0.129755,-0.37305 0,-0.108127 -0.04325,-0.232477 -0.129755,-0.37305 -0.529833,-0.7569 -0.535229,-1.513801 -0.01619,-2.270702 0.09731,-0.173007 0.145973,-0.313578 0.145973,-0.421711 0,-0.108127 -0.03785,-0.227067 -0.113536,-0.35682 -0.237886,-0.346013 -0.362235,-0.821782 -0.373047,-1.427306 0,-0.616336 0.113537,-1.092105 0.34061,-1.427306 0.09731,-0.129758 0.145973,-0.264919 0.145973,-0.405484 0,-0.118946 -0.04325,-0.243295 -0.129755,-0.373047 -0.551457,-0.789343 -0.540634,-1.546249 0.03247,-2.270719 L 75.557153,9.1696986 V 3.3793742 h 3.860216 v 2.1896187 l 3.341196,0.01619 V 3.3793472 Z"
       id="path4356"
       style="font-size:40px;line-height:1.25;font-family:'Chess Leipzig';-inkscape-font-specification:'Chess Leipzig';white-space:pre;fill:#ffffff;stroke:#ffffff;stroke-width:3;stroke-dasharray:none;stroke-opacity:1"
       sodipodi:nodetypes="cccccccccscccsccscscccccccccccscsccscccsccccccccc" />
    <path
       d="m 146.86439,54.568038 c -0.15138,0.16219 -0.27573,0.28114 -0.37304,0.35683 -0.0865,0.0649 -0.1622,0.12974 -0.22708,0.19462 -0.0541,0.0541 -0.40549,0.41089 -1.05426,1.07048 -0.24869,0.27032 -0.54605,0.44333 -0.89206,0.51902 -0.22707,0.0649 -0.54606,0.0378 -0.95695,-0.0811 -1.35161,-0.35683 -2.41669,-1.07048 -3.19522,-2.14096 -0.30276,-0.40007 -0.51902,-0.88125 -0.64877,-1.44353 -0.11894,-0.57309 -0.0595,-1.29755 0.17842,-2.1734 0.23788,-0.88665 1.09751,-1.89766 2.57888,-3.03302 1.61112,-1.23267 2.55725,-2.211244 2.83839,-2.935711 0.23788,-0.421705 0.5082,-0.886658 0.81097,-1.394861 0.31357,-0.508209 0.68121,-1.000199 1.10291,-1.47597 0.25951,-0.183819 0.50281,-0.394671 0.72988,-0.632557 0.23789,-0.248698 0.47036,-0.502802 0.69743,-0.762312 v -1.994982 c 0.59471,0.11894 1.03264,0.291947 1.31377,0.51902 0.12976,0.140571 0.27033,0.270326 0.42171,0.389266 0.16219,0.11894 0.30817,0.248695 0.43792,0.389265 0.27032,-0.486584 0.44333,-0.892068 0.51902,-1.216451 0.0108,-0.07569 0.0487,-0.227074 0.11354,-0.454147 0.0649,-0.227068 0.12974,-0.600112 0.19463,-1.119133 0.16219,-0.04324 0.30276,1.2e-5 0.42171,0.129755 0.49739,0.56227 0.96775,1.189418 1.41109,1.881445 1.97876,0.789343 3.78451,1.724663 5.41726,2.805958 1.64357,1.08129 2.90327,2.205834 3.77912,3.373633 2.47616,3.362822 3.71424,8.315142 3.71424,14.856952 0,1.37325 -0.0703,2.62755 -0.21085,3.7629 h -22.13946 c -0.14057,-1.40568 0.60552,-2.89786 2.23827,-4.47655 0.73528,-0.71365 1.49759,-1.40568 2.28694,-2.07608 0.80015,-0.6704 1.57868,-1.35161 2.33559,-2.04364 1.40568,-1.29755 2.18421,-2.3356 2.33559,-3.11413 -0.0541,-0.12975 -0.15679,-0.21626 -0.30817,-0.25951 -0.37845,0.22707 -0.7569,0.37305 -1.13535,0.43792 -0.37846,0.0649 -0.75151,0.10812 -1.11914,0.12976 -0.23789,0.0108 -0.47577,0.0216 -0.71366,0.0325 -0.22707,0 -0.49739,-0.0541 -0.81097,-0.1622 -0.4217,0.47577 -0.78393,0.88667 -1.08669,1.23268 -0.29195,0.3352 -0.62716,0.63796 -1.00561,0.90828 z"
       id="path406-5"
       style="font-size:40px;line-height:1.25;font-family:'Chess Leipzig';-inkscape-font-specification:'Chess Leipzig';white-space:pre;fill:#ffffff;stroke:#ffffff;stroke-width:3;stroke-dasharray:none;stroke-opacity:1"
       sodipodi:nodetypes="ccscccccccccccccccccscccccscccccccscccccc" />
    <path
       d="m 146.86439,21.759703 c -0.15138,0.16219 -0.27573,0.28114 -0.37304,0.35683 -0.0865,0.0649 -0.1622,0.12974 -0.22708,0.19462 -0.0541,0.0541 -0.40549,0.41089 -1.05426,1.07048 -0.24869,0.27032 -0.54605,0.44333 -0.89206,0.51902 -0.22707,0.0649 -0.54606,0.0378 -0.95695,-0.0811 -1.35161,-0.35683 -2.41669,-1.07048 -3.19522,-2.14096 -0.30276,-0.40007 -0.51902,-0.88125 -0.64877,-1.44353 -0.11894,-0.57309 -0.0595,-1.29755 0.17842,-2.1734 0.23788,-0.88665 1.09751,-1.89766 2.57888,-3.03302 1.61112,-1.23267 2.55725,-2.211244 2.83839,-2.935711 0.23788,-0.421705 0.5082,-0.886658 0.81097,-1.394861 0.31357,-0.508209 0.68121,-1.0001987 1.10291,-1.4759694 0.25951,-0.183819 0.50281,-0.3946707 0.72988,-0.6325567 0.23789,-0.248698 0.47036,-0.502802 0.69743,-0.762312 v -1.994982 c 0.59471,0.11894 1.03264,0.291947 1.31377,0.51902 0.12976,0.140571 0.27033,0.270326 0.42171,0.389266 0.16219,0.11894 0.30817,0.248695 0.43792,0.389265 0.27032,-0.486584 0.44333,-0.892068 0.51902,-1.216451 0.0108,-0.07569 0.0487,-0.227074 0.11354,-0.454147 0.0649,-0.227068 0.12974,-0.600112 0.19463,-1.119133 0.16219,-0.04324 0.30276,1.2e-5 0.42171,0.129755 0.49739,0.56227 0.96775,1.189418 1.41109,1.881445 1.97876,0.789343 3.78451,1.724663 5.41726,2.8059577 1.64357,1.0812894 2.90327,2.2058334 3.77912,3.3736324 2.47616,3.362822 3.71424,8.315142 3.71424,14.856952 0,1.37325 -0.0703,2.62755 -0.21085,3.7629 h -22.13946 c -0.14057,-1.40568 0.60552,-2.89786 2.23827,-4.47655 0.73528,-0.71365 1.49759,-1.40568 2.28694,-2.07608 0.80015,-0.6704 1.57868,-1.35161 2.33559,-2.04364 1.40568,-1.29755 2.18421,-2.3356 2.33559,-3.11413 -0.0541,-0.12975 -0.15679,-0.21626 -0.30817,-0.25951 -0.37845,0.22707 -0.7569,0.37305 -1.13535,0.43792 -0.37846,0.0649 -0.75151,0.10812 -1.11914,0.12976 -0.23789,0.0108 -0.47577,0.0216 -0.71366,0.0325 -0.22707,0 -0.49739,-0.0541 -0.81097,-0.1622 -0.4217,0.47577 -0.78393,0.88667 -1.08669,1.23268 -0.29195,0.3352 -0.62716,0.63796 -1.00561,0.90828 z"
       id="path4528"
       style="font-size:40px;line-height:1.25;font-family:'Chess Leipzig';-inkscape-font-specification:'Chess Leipzig';white-space:pre;fill:#ffffff;stroke:#ffffff;stroke-width:3;stroke-dasharray:none;stroke-opacity:1"
       sodipodi:nodetypes="ccscccccccccccccccccscccccscccccccscccccc" />
    <path
       d="m 186.73213,64.964591 h -8.83956 q 0.30816,-3.48717 2.96814,-5.88763 0.43793,-0.40549 0.48659,-0.43793 1.37864,-1.13536 2.35181,-2.70864 -2.49779,-1.63815 -2.49779,-4.62252 0,-1.849016 1.11914,-3.324977 0.37304,-0.470366 0.79475,-1.070478 0.43793,-0.600121 0.69744,-1.167796 -0.38927,0.09732 -1.18403,0.308165 -0.77853,0.210855 -1.15157,0.35683 1.11914,-1.038042 2.12474,-2.465347 1.02182,-1.427306 1.20023,-3.033023 -0.82718,-0.843412 -0.82718,-1.978772 0,-1.135351 0.79475,-1.946326 0.81096,-0.810968 1.96254,-0.810968 1.11914,0 1.93011,0.810968 0.81097,0.810975 0.81097,1.946326 0,1.151578 -0.82719,1.978772 0.17841,1.605717 1.20023,3.033023 1.03804,1.427306 2.15719,2.465347 -0.37305,-0.145974 -1.18402,-0.35683 -0.79476,-0.210847 -1.18402,-0.308165 0.25951,0.567675 0.68122,1.167796 0.43792,0.600112 0.82719,1.070478 1.11914,1.475961 1.11914,3.324977 0,2.98437 -2.4978,4.62252 0.92452,1.55706 2.3356,2.70864 0.24329,0.19464 0.48658,0.43793 2.6762,2.40046 2.96815,5.88763 z"
       id="path4569"
       style="font-size:40px;line-height:1.25;font-family:'Chess Leipzig';-inkscape-font-specification:'Chess Leipzig';white-space:pre;fill:#ffffff;stroke:#ffffff;stroke-width:3;stroke-dasharray:none;stroke-opacity:1" />
    <path
       d="m 186.73213,32.156255 h -8.83956 q 0.30816,-3.48717 2.96814,-5.88763 0.43793,-0.40549 0.48659,-0.43793 1.37864,-1.13536 2.35181,-2.70864 -2.49779,-1.63815 -2.49779,-4.62252 0,-1.849016 1.11914,-3.324977 0.37304,-0.470366 0.79475,-1.070478 0.43793,-0.600121 0.69744,-1.167796 -0.38927,0.09732 -1.18403,0.308165 -0.77853,0.210855 -1.15157,0.35683 1.11914,-1.038042 2.12474,-2.465347 1.02182,-1.4273057 1.20023,-3.0330221 -0.82718,-0.843412 -0.82718,-1.978772 0,-1.135351 0.79475,-1.946326 0.81096,-0.8109677 1.96254,-0.8109677 1.11914,0 1.93011,0.8109677 0.81097,0.810975 0.81097,1.946326 0,1.151578 -0.82719,1.978772 0.17841,1.6057164 1.20023,3.0330221 1.03804,1.427306 2.15719,2.465347 -0.37305,-0.145974 -1.18402,-0.35683 -0.79476,-0.210847 -1.18402,-0.308165 0.25951,0.567675 0.68122,1.167796 0.43792,0.600112 0.82719,1.070478 1.11914,1.475961 1.11914,3.324977 0,2.98437 -2.4978,4.62252 0.92452,1.55706 2.3356,2.70864 0.24329,0.19464 0.48658,0.43793 2.6762,2.40046 2.96815,5.88763 z"
       id="path4612"
       style="font-size:40px;line-height:1.25;font-family:'Chess Leipzig';-inkscape-font-specification:'Chess Leipzig';white-space:pre;fill:#ffffff;stroke:#ffffff;stroke-width:3;stroke-dasharray:none;stroke-opacity:1" />
  </g>
  <g
     inkscape:label="Layer 1"
     inkscape:groupmode="layer"
     id="layer1"
     sodipodi:insensitive="true">
    <path
       d="m 22.259443,24.221973 1.362424,1.05426 1.703035,-0.5839 -1.346206,-1.05426 z m 4.00619,-0.27573 q 0.113528,0.34061 0.113528,0.64877 0,0.95695 -0.69743,1.47597 -0.06486,0.27573 -0.09732,0.55146 0.600121,0.8434 0.600121,1.36242 0,1.36244 -2.627539,2.3356 -2.627547,0.97316 -6.309346,0.97316 -3.698016,0 -6.325561,-0.97316 -2.611321,-0.97316 -2.611321,-2.3356 0,-0.53523 0.632556,-1.39486 -0.03244,-0.17841 -0.09732,-0.5028 -0.713653,-0.51902 -0.713653,-1.49219 0,-0.30816 0.09732,-0.63255 0.162193,-0.40549 -0.06488,-0.63256 -0.227072,-0.22707 -0.5190201,-0.63255 -0.2595102,-0.81098 -0.2595102,-1.11914 0.016218,-0.14597 0.048655,-0.32439 0.048655,-0.17841 0.048655,-0.4217 Q 6.7699137,20.118473 5.991383,19.485913 5.2290716,18.837137 4.7911487,17.928855 4.2721282,16.858377 3.8342045,15.771673 3.4125,14.668759 3.4125,13.6145 q 0,-1.99499 1.0542609,-3.373633 Q 5.521021,8.862216 7.3213733,8.083685 9.721843,7.921493 9.348797,7.921493 q 2.822175,0 5.125331,2.0923 V 4.320787 h 5.530806 v 5.709225 q 2.303155,-2.108519 5.157768,-2.108519 -0.405484,0 2.027427,0.162192 1.767908,0.778531 2.822167,2.157183 1.070486,1.378642 1.070486,3.373632 0,1.05426 -0.437929,2.140956 -0.421702,1.086696 -0.924504,2.157182 -0.43792,0.9245 -1.216451,1.605715 -0.778531,0.68121 -1.47597,1.36243 -0.01619,0.19463 0.01619,0.37304 0.04866,0.17842 0.06486,0.32439 0.01619,0.22707 -0.259511,1.11914 -0.291946,0.40548 -0.51902,0.63255 -0.210855,0.22707 -0.06486,0.61634 z m -2.238282,4.65496 q -0.06486,-0.35682 -0.227065,-0.77853 -0.178419,-0.38926 -0.373047,-0.51902 -0.178419,-0.14597 -0.324392,-0.37304 -1.638153,-1.03805 -5.822762,-0.92451 -4.249474,-0.11354 -5.871416,0.92451 -0.194632,0.19463 -0.389265,0.34061 -0.178414,0.14597 -0.308169,0.53523 -0.178413,0.40549 -0.227072,0.79475 -0.03244,0.51902 0.454143,0.51902 0.470363,0 0.454143,-0.5028 0.145975,-1.62193 5.822763,-1.62193 5.725443,0 5.887635,1.62193 -0.03247,0.5028 0.454147,0.5028 0.470357,0 0.470357,-0.51902 z m -4.995568,-9.569436 q 0.210847,0 0.421702,0.0325 0.210855,0.0162 0.405484,0.0162 -0.129755,-1.475974 0.129755,-2.416696 0.09732,-0.356829 0.356829,-0.389266 0.373047,-0.06486 0.535238,0.405484 0.129756,0.778531 -0.25951,2.481568 0.648776,0.11353 0.956941,0.11353 0.09732,-2.49778 0.762312,-3.973741 0.194637,-0.389265 0.648776,-0.389265 0.551465,0 0.51902,0.535238 0.03247,0.03247 0.03247,0.502803 0,0.827185 -0.924512,3.519601 0.470365,0.16219 0.810976,0.12976 0.17841,-0.470366 0.35682,-0.989386 0.194637,-0.535239 0.486584,-1.135359 0.129755,-0.308165 0.373047,-0.308165 0.275728,0 0.34061,0.535238 0.01619,0.454148 -0.956949,2.076082 0.405483,0.19463 0.810975,0.21085 0.194629,-0.38926 0.356821,-0.729866 0.178418,-0.34061 0.373047,-0.875853 0.356828,-1.038041 0.291947,-1.978764 -0.129755,-0.567675 -0.632549,-0.567675 -0.243292,0 -0.600121,0.389265 0.08113,-0.51902 0.08113,-0.648775 0,-0.681221 -0.340611,-1.281333 -0.324392,-0.616339 -1.119141,-0.843413 -0.583894,0.03247 -1.216451,0.713658 -0.632557,0.681212 -0.843412,1.605716 -0.17841,-0.567675 -0.470357,-0.648775 -0.291947,-0.08105 -0.389266,-0.08105 -0.194636,0 -0.373047,0.113529 -0.648775,0.746094 -0.794749,2.270718 -0.04866,0.340611 -0.06486,0.664994 -0.01619,0.324388 -0.06486,0.940718 z m -3.616925,0.0162 q -0.04866,-0.60012 -0.06486,-0.924508 -0.01619,-0.324384 -0.04866,-0.664994 -0.194628,-1.557062 -0.794749,-2.270711 -0.162192,-0.113536 -0.389265,-0.113536 -0.09732,0 -0.405484,0.08105 -0.291947,0.08113 -0.437928,0.632558 -0.227066,-0.924504 -0.859623,-1.605716 -0.616339,-0.681213 -1.200236,-0.713658 -0.81097,0.243292 -1.135357,0.859631 -0.324388,0.600121 -0.324388,1.281333 0,0.308165 0.0811,0.648775 -0.389266,-0.405483 -0.600117,-0.405483 -0.519021,0 -0.632557,0.583894 -0.0811,1.005604 0.29195,1.962546 0.178413,0.53525 0.340607,0.892065 0.178413,0.34061 0.389265,0.72987 0.389265,-0.0162 0.81097,-0.21085 -0.989384,-1.605715 -0.956944,-2.07608 0.01622,-0.535239 0.324387,-0.535239 0.243291,0 0.389266,0.308173 0.275729,0.583894 0.454143,1.119131 0.194632,0.53524 0.389265,1.005605 0.389265,0 0.810962,-0.12976 -0.940717,-2.74107 -0.940717,-3.53582 0,-0.437928 0.03244,-0.486582 0,-0.551457 0.51902,-0.551457 0.454142,0 0.664997,0.405483 0.648776,1.475962 0.762304,3.973736 0.324392,-0.0162 0.940731,-0.113515 -0.389265,-1.735484 -0.243292,-2.481578 0.145974,-0.486575 0.519021,-0.421702 0.275728,0.06486 0.356828,0.389265 0.25951,1.021823 0.129755,2.432915 0.259511,-0.0325 0.827186,-0.0649 z m 1.83279,-9.09908 q -0.794749,0 -1.362424,0.567683 -0.567684,0.567676 -0.567684,1.362425 0,0.810968 0.567684,1.378652 0.567675,0.551456 1.362424,0.551456 1.930109,0 1.930109,-1.930108 0,-1.930108 -1.930109,-1.930108 z m 0.194637,-3.48717 q -0.09732,-0.04866 -0.194637,-0.04866 -0.17841,0 -0.25951,0.06486 L 15.950097,5.42365 H 15.57705 v 0.454147 l 1.021823,1.021822 q -0.04866,0.09732 -0.04866,0.210847 0,0.09732 0.04866,0.194637 L 15.57705,8.343145 v 0.421701 h 0.373047 L 16.97192,7.743024 q 0.113537,0.04866 0.275728,0.04866 0.129755,0 0.210856,-0.03247 l 1.021822,1.005605 h 0.43792 V 8.391768 l -1.03804,-1.005596 q 0.04866,-0.113536 0.04866,-0.275737 0,-0.145973 -0.06486,-0.25951 L 18.918265,5.812884 V 5.423619 h -0.454147 z m 1.962545,17.257426 -2.189618,-1.03804 -2.108519,1.03804 2.18961,1.05427 z m -7.039221,0.5028 -1.719251,-0.58389 -1.34621,1.05426 1.703036,0.58389 z m 12.602473,-1.5084 q 0.729867,-0.0811 0.729867,-0.81097 0,-0.47036 -0.421702,-0.71365 -1.362433,-0.55146 -3.470951,-0.89207 -2.092301,-0.35683 -4.573866,-0.35683 -5.206423,0 -8.077256,1.28134 -0.356827,0.27572 -0.356827,0.68121 0,0.82719 0.827189,0.79476 2.887055,-1.08671 7.606894,-1.08671 4.784721,0 7.736652,1.10292 z M 14.376818,11.619485 q -1.881454,-1.994982 -4.2657,-1.994982 -2.189618,0 -3.3249751,1.459743 -0.7298723,0.924504 -0.7298723,2.514003 0,1.248896 0.3568269,2.384255 0.016218,0.324383 0.4054845,0.324383 0.3892654,0 0.4217037,-0.389264 -0.1297551,-0.827186 -0.1297551,-1.475962 0,-1.346206 0.6325564,-2.124736 0.908286,-1.232679 2.822174,-1.232679 1.881448,0 3.51961,1.492188 0.324383,0 0.324383,-0.600121 0,-0.129755 -0.03247,-0.356827 z m 5.660569,0 q -0.03247,0.227073 -0.03247,0.356828 0,0.600121 0.324392,0.600121 1.621935,-1.492188 3.535825,-1.492188 1.881453,0 2.805958,1.232678 0.632557,0.77853 0.632557,2.124736 0,0.648776 -0.129755,1.475962 0.01619,0.389265 0.421702,0.389265 0.405483,0 0.405483,-0.324384 0.356829,-1.135359 0.356829,-2.384255 0,-1.589498 -0.729876,-2.514002 -1.151577,-1.459743 -3.324978,-1.459743 -2.400465,0 -4.265692,1.994982 z"
       id="path398"
       style="font-size:40px;line-height:1.25;font-family:'Chess Leipzig';-inkscape-font-specification:'Chess Leipzig';white-space:pre;stroke-width:0.830433" />
    <path
       d="m 51.981337,7.167274 q 0.243292,2.627539 0.486584,5.255087 0.25951,2.61132 0.51902,5.222641 0.01619,0.373046 0.373047,0.373046 0.25951,-0.01619 0.356829,-0.227074 1.411079,-3.406069 2.076081,-5.271304 0.681213,-1.881445 0.827186,-2.319373 -0.746094,-0.71365 -0.746094,-1.605717 0,-0.778531 0.551457,-1.329988 0.567684,-0.567684 1.362433,-0.567684 0.778531,0 1.329988,0.567684 0.567684,0.551457 0.567684,1.329988 0,1.411089 -1.459752,1.91389 l -1.184014,7.071649 q -0.08105,0.486584 0.34061,0.486584 0.340602,0 0.519021,-0.17841 1.946326,-1.946327 2.789731,-3.016813 0.85963,-1.070477 1.200241,-1.492179 -0.356829,-0.470366 -0.356829,-1.13536 0,-1.897663 1.897663,-1.897663 0.778531,0 1.329996,0.567676 0.567676,0.551457 0.567676,1.329987 0,0.794749 -0.567676,1.346215 -0.551465,0.551457 -1.329996,0.551457 -0.243283,0 -0.43792,-0.04866 -1.297551,2.805957 -2.076082,5.74167 -0.664994,2.38425 -0.827186,4.52521 0.09731,0.45414 0.113537,0.47036 -0.04866,-0.19463 0.06486,0.37305 0.06486,0.25951 0.06486,0.5028 -0.09732,0.25951 -0.405492,0.58389 -0.275729,0.30817 -0.405484,1.21646 0.600121,0.8434 0.600121,1.36242 0,1.36244 -2.627539,2.3356 -2.627548,0.97316 -6.309346,0.97316 -3.698016,0 -6.325563,-0.97316 -2.611321,-0.97316 -2.611321,-2.3356 0,-0.53523 0.632557,-1.39486 -0.194628,-0.92451 -0.421702,-1.18402 -0.324392,-0.32438 -0.421702,-0.58389 0,-0.21086 0.04866,-0.48659 0.03247,-0.12975 0.04866,-0.22707 0.01619,-0.11353 0.03247,-0.16219 0.06486,-0.17841 0.129755,-0.5028 -0.1622,-2.04364 -0.794757,-4.49277 -0.843405,-3.081687 -2.092301,-5.774108 -0.275728,0.08113 -0.567675,0.08113 -1.897672,0 -1.897672,-1.897672 0,-1.897664 1.897672,-1.897664 1.897671,0 1.897671,1.897664 0,0.583902 -0.291955,1.05426 0.956949,1.216459 1.91389,2.270718 0.973168,1.038041 2.140964,2.286929 0.145973,0.210854 0.421702,0.210854 0.470357,0 0.421702,-0.486583 -0.03247,-0.145973 -0.405484,-2.319373 -0.373047,-2.173393 -0.810967,-4.736058 -1.540843,-0.421702 -1.540843,-1.930108 0,-0.778531 0.551457,-1.329988 0.567675,-0.567684 1.346206,-0.567684 1.897672,0 1.897672,1.897672 0,0.843412 -0.648776,1.540842 0.08113,0.34061 0.405484,1.362425 0.324392,1.005605 1.005604,2.659984 0.373047,0.908285 0.746094,1.832789 0.389265,0.908287 0.778531,1.800354 0.09731,0.210855 0.340602,0.210855 0.34061,-0.01619 0.389265,-0.356829 0.03247,-0.194637 0.989386,-10.461509 -1.151578,-0.616339 -1.151578,-1.83279 0,-0.77853 0.551457,-1.346206 0.551466,-0.567684 1.346215,-0.567684 0.77853,0 1.329988,0.567684 0.567675,0.567677 0.567675,1.346206 0,1.102923 -1.054259,1.816572 z M 47.6021,23.905683 q -0.892059,0 -0.892059,0.94073 0,0.95695 0.892059,0.95695 0.908285,0 0.908285,-0.95695 0,-0.94073 -0.908285,-0.94073 z m -4.946913,-3.40607 q 0.194637,0.665 0.34061,1.20024 0.162192,0.51902 0.275729,1.13536 0.09732,0.0487 0.291947,0.0487 1.362433,-0.40548 3.341196,-0.71365 1.994982,-0.30817 4.281919,-0.30817 2.335592,0 4.3468,0.32439 2.0112,0.30816 3.373633,0.71365 0.08105,0 0.243284,-0.0649 0.09732,-0.5839 0.25951,-1.0867 0.1622,-0.51902 0.356828,-1.20024 -1.849008,-0.4217 -4.038626,-0.82718 -2.189619,-0.40549 -4.541429,-0.40549 -2.351811,0 -4.492774,0.40549 -2.140955,0.38926 -4.038627,0.77853 z m 16.284271,5.10911 -1.167796,-1.11913 -1.492188,0.60011 1.184014,1.11914 z m -5.693007,-1.15158 -2.0923,-1.08669 -2.011208,1.08669 2.0923,1.10292 z m -7.006776,0.64878 -1.638161,-0.55146 -1.297551,1.02182 1.621943,0.55146 z m 8.515182,-1.20024 q -0.908285,0 -0.908285,0.94073 0,0.95695 0.908285,0.95695 0.908286,0 0.908286,-0.95695 0,-0.94073 -0.908286,-0.94073 z m 3.552044,5.62813 q -0.09732,-0.48658 -0.227074,-0.81097 -0.194629,-0.4217 -0.389265,-0.55146 -0.194629,-0.14597 -0.356829,-0.37304 -0.859622,-0.55146 -2.416684,-0.94073 -1.540843,-0.40548 -3.730461,-0.35682 -2.238274,-0.0487 -3.762898,0.35682 -1.524625,0.38927 -2.368029,0.94073 -0.210855,0.19463 -0.405484,0.35683 -0.194637,0.14597 -0.34061,0.55145 -0.162192,0.48659 -0.227074,0.82719 -0.03247,0.55146 0.486584,0.55146 0.486584,0 0.486584,-0.53523 0.145973,-1.68682 6.09849,-1.68682 6.01739,0 6.179582,1.68682 -0.03247,0.53523 0.486584,0.53523 0.486584,0 0.486584,-0.55146 z"
       id="path400"
       style="font-size:40px;line-height:1.25;font-family:'Chess Leipzig';-inkscape-font-specification:'Chess Leipzig';white-space:pre;stroke-width:0.830433" />
    <path
       d="m 85.036325,3.412499 h 2.238274 v 2.205837 h 3.357414 V 3.412499 h 3.860217 v 5.790325 l -2.611321,3.016804 q 0.843404,1.070478 0.03247,2.254501 -0.129755,0.210846 -0.129755,0.389265 0,0.210847 0.129755,0.405484 0.340611,0.502802 0.324392,1.427306 0,0.908286 -0.34061,1.427306 -0.113537,0.162192 -0.113537,0.340602 0,0.227074 0.145974,0.42171 0.762312,1.151571 -0.03247,2.270711 -0.113537,0.19463 -0.113537,0.37304 0,0.17841 0.113537,0.37305 0.356828,0.53524 0.356828,1.49218 0,0.94073 -0.389265,1.39487 l 2.627539,1.31377 v 1.39487 h 1.086696 v 4.70362 H 85.036325 74.477506 v -4.6874 h 1.102914 v -1.39487 l 2.611321,-1.32999 q -0.389265,-0.45414 -0.389265,-1.39487 0,-0.94072 0.356828,-1.47596 0.129755,-0.17841 0.129755,-0.37305 0,-0.16219 -0.129755,-0.37305 -0.794749,-1.13535 -0.01619,-2.270702 0.145973,-0.259511 0.145973,-0.421711 0,-0.162191 -0.113536,-0.35682 -0.356829,-0.51902 -0.373047,-1.427306 0,-0.924504 0.34061,-1.427306 0.145973,-0.194637 0.145973,-0.405484 0,-0.178419 -0.129755,-0.373047 -0.827186,-1.184014 0.03247,-2.270719 L 75.580482,9.219042 V 3.428717 h 3.860216 v 2.189619 l 3.341196,0.01619 V 3.42869 Z m -8.304327,4.119727 v 1.411088 q 2.076082,-0.09732 4.135945,-0.194637 2.076082,-0.113528 4.168382,-0.113528 2.043645,0 4.119727,0.129755 2.0923,0.129755 4.1846,0.17841 0,-0.535239 0,-0.697431 0,-0.178418 0,-0.713657 z m 0.697431,19.106437 q -0.697431,0.0649 -0.697431,0.69744 v 0 q 0,0.69743 0.697431,0.69743 l 7.606896,-0.25951 7.606897,0.25951 q 0.69743,0 0.69743,-0.69743 v 0 q 0,-0.63256 -0.69743,-0.69744 -1.897672,-0.11354 -3.811562,-0.19463 -1.897663,-0.0973 -3.795335,-0.0973 -1.897671,0 -3.811553,0.0973 -1.897672,0.0811 -3.795343,0.19463 z m 8.434082,-4.39546 q 0.470365,-0.37304 1.378651,-0.37304 0.924504,0 1.411088,0.37304 0.486584,0.38927 0.486584,1.1678 0.01619,0.77853 -0.486584,1.02182 -0.519021,0.27573 -1.411088,0.27573 -0.892067,0 -1.378651,-0.27573 -0.519021,-0.24329 -0.502794,-1.02182 0.01619,-0.77853 0.502794,-1.1678 z m -4.444111,0 q 0.486584,-0.37304 1.39487,-0.37304 0.908286,0 1.394869,0.37304 0.486576,0.38927 0.437921,1.1678 -0.03247,0.77853 -0.437921,1.02182 -0.42171,0.27573 -1.427306,0.25951 -0.989386,-0.0325 -1.362433,-0.25951 -0.389265,-0.21085 -0.43792,-1.00559 -0.04866,-0.79476 0.43792,-1.18403 z M 85.036325,10.54903 q -1.540843,0 -3.568261,0.210855 -2.027427,0.194629 -2.546447,0.356829 -0.535239,0.194629 -0.486584,0.616331 0.04866,0.42171 0.486584,0.551465 0.43792,0.145973 1.735471,-0.03247 1.297551,-0.17841 1.605725,0.03247 0.291947,0.227065 0.291947,1.070478 0,0.827185 -0.291947,1.135359 -0.308174,0.308165 -1.670598,0.08105 -1.346215,-0.227065 -1.670598,-0.08105 -0.324392,0.145973 -0.259511,0.535239 0.06486,0.373047 0.259511,0.551457 0.194628,0.194637 0.567675,-0.08113 0.389265,-0.275729 0.583902,0.08113 0.194629,0.389265 0.194629,1.119141 0,0.729867 -0.194629,1.086696 -0.194637,0.373047 -0.583902,0.09732 -0.373047,-0.291947 -0.567675,-0.09732 -0.210856,0.210855 -0.227074,0.632557 0,0.405484 0.227074,0.51902 0.210855,0.145974 1.621934,-0.06486 1.411088,-0.227066 1.719262,0.06486 0.291947,0.308166 0.291947,1.086696 0,0.77853 -0.291947,1.11914 -0.308174,0.35683 -1.73548,0.11354 -1.411088,-0.25952 -1.605716,-0.11354 -0.632558,0.51902 0,1.10291 0.194628,0.19464 0.567675,-0.081 0.389265,-0.27573 0.583902,0.081 0.194629,0.37305 0.194629,1.10293 0,0.72987 -0.194629,1.08669 -0.194637,0.38927 -0.583902,0.11354 -0.373047,-0.29195 -0.567675,-0.11354 -0.194637,0.19464 -0.308166,0.5839 -0.113536,0.37305 0.308166,0.51902 0.324383,0.12976 2.140955,-0.0487 1.816571,-0.17841 3.973753,-0.17841 2.140964,0 4.00619,0.14597 1.865227,0.12976 2.108519,0.0811 0.34061,-0.0487 0.25951,-0.47037 -0.06486,-0.43792 -0.25951,-0.63256 -0.210847,-0.17841 -0.600112,0.11354 -0.373047,0.27573 -0.551466,-0.11354 -0.194628,-0.35682 -0.194628,-1.08669 0,-0.72988 0.194628,-1.10292 0.178419,-0.35682 0.567684,-0.081 0.389265,0.27572 0.583894,0.081 0.60012,-0.60012 0,-1.10292 -0.194629,-0.14597 -1.670598,0.0811 -1.475962,0.22707 -1.686817,-0.0811 -0.210847,-0.29195 -0.243292,-1.02182 -0.01619,-0.7461 0.243292,-1.184012 0.25951,-0.437921 1.686817,-0.162192 1.443524,0.275728 1.670598,0.162192 0.194637,-0.09732 0.194637,-0.519021 0,-0.421702 -0.194637,-0.632557 -0.210847,-0.194629 -0.600112,0.09732 -0.373047,0.275729 -0.551466,-0.09732 -0.194628,-0.356829 -0.194628,-1.086696 0,-0.729876 0.194628,-1.119141 0.178419,-0.356829 0.551466,-0.08113 0.389265,0.275737 0.600112,0.08113 0.194637,-0.17841 0.210855,-0.551457 0.03247,-0.389265 -0.210855,-0.535239 -0.275729,-0.145973 -1.686817,0.08105 -1.411088,0.227074 -1.670598,-0.08105 -0.25951,-0.308173 -0.25951,-1.102922 0,-0.794749 0.25951,-1.102915 0.25951,-0.291955 1.589507,-0.03247 1.329987,0.259511 1.767908,0.03247 0.421702,-0.210855 0.454147,-0.583902 0.04866,-0.389265 -0.454147,-0.583894 -0.535239,-0.1622 -2.578884,-0.356828 -2.027419,-0.210856 -3.535825,-0.210856 z m -1.346206,1.73548 q 0.454139,-0.373047 1.329988,-0.373047 0.892067,0 1.362424,0.373047 0.470366,0.389265 0.470366,1.102914 0,0.713658 -0.470366,1.102923 -0.470357,0.389265 -1.362424,0.389265 -0.875849,0 -1.329988,-0.389265 -0.470365,-0.389265 -0.470365,-1.102923 0,-0.713649 0.470365,-1.102914 z m 2.173392,3.292533 q 0.470365,-0.373047 1.378651,-0.373047 0.924504,0 1.411088,0.373047 0.486584,0.389265 0.486584,1.119141 0,0.713649 -0.486584,1.086696 -0.486584,0.389265 -1.411088,0.389265 -0.908286,0 -1.378651,-0.389265 -0.486576,-0.373047 -0.486576,-1.086696 0,-0.729876 0.486576,-1.119141 z m -4.444111,0 q 0.486584,-0.373047 1.39487,-0.373047 0.908286,0 1.394869,0.373047 0.486576,0.389265 0.486576,1.119141 0,0.713649 -0.486576,1.086696 -0.486583,0.389265 -1.394869,0.389265 -0.908286,0 -1.39487,-0.389265 -0.486583,-0.373047 -0.486583,-1.086696 0,-0.729876 0.486583,-1.119141 z m 2.270719,3.357414 q 0.454139,-0.373047 1.329988,-0.373047 0.892067,0 1.362424,0.373047 0.470366,0.389266 0.470366,1.119136 0,0.71365 -0.470366,1.0867 -0.470357,0.38926 -1.362424,0.38926 -0.875849,0 -1.329988,-0.38926 -0.470365,-0.37305 -0.470365,-1.0867 0,-0.72987 0.470365,-1.119136 z m -8.061035,10.201996 v 1.10291 h 18.830709 v -1.10291 z"
       id="path402"
       style="font-size:40px;line-height:1.25;font-family:'Chess Leipzig';-inkscape-font-specification:'Chess Leipzig';white-space:pre;stroke-width:0.830433" />
    <path
       d="m 121.0373,29.833903 q -0.25951,-0.16219 -0.72988,-0.68121 -0.0811,-0.0811 -0.16219,-0.14598 -0.0811,-0.0811 -0.1622,-0.17842 -0.12975,-0.081 -0.25951,-0.081 -0.8434,0 -0.63255,0.63256 0.0973,0.14597 0.081,0.12976 0.11354,0.11353 0.77853,0.72986 0.30818,0.29196 0.5839,0.42171 0.14598,0.0973 0.29195,0.0973 0.48659,0 0.48659,-0.48657 0,-0.19464 -0.27573,-0.43793 z m 1.23267,-8.25567 -0.29195,-1.11914 q -1.28133,-0.35683 -3.06547,-0.35683 -1.63815,0 -2.9357,0.3244 l -0.32439,1.11913 q 1.41108,-0.37305 3.26009,-0.37305 1.97877,0 3.35742,0.40549 z m -1.76792,1.76791 -1.57328,0.64878 -1.55706,-0.64878 1.55706,-0.64877 z m 1.8328,-0.8434 q -1.37865,-0.37305 -3.37363,-0.37305 -1.86524,0 -3.29254,0.3406 l -0.22708,0.63256 1.37865,0.30817 -1.4273,0.90829 -0.30817,-0.0649 -0.38926,1.1678 q 0.3406,-0.35683 1.54084,-0.60011 1.20023,-0.2433 2.77351,-0.2433 1.54084,0 2.72486,0.2433 1.20023,0.24328 1.55706,0.58389 l -0.40548,-1.1678 -0.40549,0.0811 -1.4273,-0.90829 1.45974,-0.30817 z m -0.53525,-8.482747 v -1.816571 h -1.94632 V 9.673204 h -1.80035 v 2.530221 h -1.97877 v 1.816571 h 1.97877 v 3.616925 h 1.80035 v -3.616925 z m -5.04422,15.813907 q -0.17842,0.17842 -0.17842,0.40548 0,0.48658 0.48658,0.48658 0.14598,0 0.25951,-0.0811 0.27573,-0.14597 0.53524,-0.40548 0.58391,-0.55146 0.81097,-0.74609 0.0325,-0.0325 0.0325,-0.11353 0,-0.63256 -0.63256,-0.63256 -0.11353,0 -0.21085,0.0973 -0.14597,0.14597 -0.35683,0.30816 -0.19463,0.14598 -0.35682,0.34061 -0.14598,0.17841 -0.38927,0.3406 z m 8.25566,-14.792084 q 0.22708,-0.875849 -0.5028,-3.260096 -0.72987,-2.384247 -2.27071,-3.989972 -0.19464,-0.145974 -0.40548,-0.129755 -0.27573,0.01619 -0.51902,0.227073 -0.2433,0.210855 -0.0649,0.502802 1.89767,1.248896 2.83839,3.470952 0.94073,2.205837 0.92451,3.178996 z m -6.09849,15.392204 q -1.20023,1.73547 -3.24387,1.73547 -0.21085,0 -0.42171,-0.0162 -0.19463,-0.0325 -0.38926,-0.0487 -0.47037,-0.0162 -1.37865,-0.1622 -0.90829,-0.16219 -2.02742,-0.72986 -0.98939,-0.85964 -2.51401,-0.85964 -1.1678,0 -2.02742,0.55146 -0.24329,0.11354 -0.60012,0.47037 -0.64878,0.69743 -1.05426,0.76231 -0.32439,-0.16219 -0.34061,-0.55146 -0.081,-0.76231 1.11914,-1.96254 -0.21085,0.0325 -0.79475,0.19463 -0.48658,0.14597 -0.64877,0.14597 -0.53524,0.0811 -0.56769,0.0162 -0.17841,-0.17841 0.12976,-0.72986 0.25951,-0.47037 1.0056,-0.8272 0.0973,-0.0487 0.61634,-0.27573 1.50841,-0.79475 3.16278,-0.79475 2.41669,0 4.36302,1.63817 0.77853,0.25951 1.57328,0.25951 2.43291,0 2.514,-2.01121 -1.57328,-0.14598 -2.62754,-0.53524 -1.03804,-0.38927 -1.03804,-0.90829 l 1.29755,-4.31435 q -1.13536,-1.78414 -1.88145,-3.633145 -0.74609,-1.849008 -0.74609,-3.503388 0,-4.963131 5.38483,-7.623115 0,-0.210855 0.0487,-0.632557 -0.55146,-0.454139 -0.55146,-1.151578 0,-1.492179 1.5084,-1.492179 1.49219,0 1.49219,1.492179 0,0.648776 -0.47037,1.086704 0,0.502802 0.12976,0.681213 0.27572,0.389265 0.72987,0.405483 0.47036,-0.01619 0.77853,-0.421702 0.0649,-0.09732 0.12976,-0.60012 -0.42171,-0.437921 -0.42171,-1.086696 0,-1.524625 1.52462,-1.524625 1.52463,0 1.52463,1.524625 0,0.859622 -0.7461,1.329988 -0.0649,0.324392 -0.0325,0.51902 2.74108,3.243878 2.38425,7.49336 -0.11354,1.216451 -0.37305,2.400465 -0.25951,1.167796 -0.90828,2.205837 -0.24329,0.551461 -0.76231,1.248891 -0.5028,0.68122 -0.87585,1.28134 l 1.28134,4.31435 q -0.0162,0.51902 -1.07049,0.90829 -1.05426,0.38926 -2.65998,0.53524 0.0811,2.01121 2.53022,2.01121 0.79476,0 1.57329,-0.25951 1.9301,-1.63817 4.36301,-1.63817 1.65438,0 3.14656,0.79475 0.19464,0.0973 0.34061,0.16219 0.14598,0.0649 0.29195,0.11354 0.72988,0.37305 1.0056,0.8272 0.0487,0.14597 0.14598,0.37304 0.0973,0.22707 -0.0162,0.35682 -0.0487,0.0649 -0.56767,-0.0162 -0.1622,0 -0.64878,-0.14597 -0.60012,-0.1622 -0.81097,-0.19463 1.20024,1.21645 1.13536,1.96254 -0.0325,0.37305 -0.35683,0.55146 -0.40549,-0.0649 -1.05426,-0.76231 -0.32438,-0.32439 -0.5839,-0.47037 -0.90828,-0.55146 -2.02742,-0.55146 -1.55706,0 -2.53022,0.85964 -1.11914,0.56767 -2.02743,0.72986 -0.90828,0.14598 -1.36242,0.1622 -0.19464,0.0162 -0.4055,0.0487 -0.21084,0.0162 -0.40548,0.0162 -2.0923,0 -3.2601,-1.73547 z"
       id="path404"
       style="font-size:40px;line-height:1.25;font-family:'Chess Leipzig';-inkscape-font-specification:'Chess Leipzig';white-space:pre;stroke-width:0.830433" />
    <path
       d="m 154.82541,19.850853 q 0.40548,-0.0811 0.90828,-0.17842 0.51902,-0.11353 1.10292,-0.30816 0.51902,-0.162187 0.34061,-0.583897 -0.11354,-0.17841 -0.3244,-0.17841 -1.15157,0.25951 -2.1734,0.30816 0.38927,-0.14597 0.81098,-0.29194 0.4217,-0.1622 0.82719,-0.356833 1.26511,-0.600113 1.67059,-2.627539 0.0811,-0.470366 -0.30816,-0.535239 -0.34061,-0.03247 -0.53525,0.275729 -0.38926,1.443524 -1.23267,1.946326 -0.27573,0.162192 -0.56767,0.291947 -0.29196,0.129755 -0.58391,0.275729 0.3244,-0.340602 0.60013,-0.827186 0.5028,-0.843404 0.68121,-2.984368 -0.11354,-0.567675 -0.56768,-0.421702 -0.14598,0.08105 -0.19463,0.145974 -0.29195,2.303155 -0.79475,3.033022 -0.17841,0.178419 -0.2433,0.308174 -0.14597,0.113537 -0.27572,0.227065 -0.11354,0.09732 -0.22708,0.194637 -0.27573,0.356829 -0.27573,0.810964 0,0.55146 0.30817,1.005607 0.32439,0.45414 1.05427,0.47036 z M 153.67383,8.918985 q 4.49276,2.205837 6.63373,5.417278 1.31377,1.994981 1.75169,4.736063 0.43793,2.741077 0.43793,6.147147 -0.0811,1.31377 0.72986,2.30315 0.8272,0.98938 1.84902,0.77853 0.30817,-9.861377 -3.50339,-15.035368 -1.16779,-1.557061 -3.2601,-3.016804 -2.0923,-1.459751 -4.67119,-2.611329 0,0.34061 0.0162,0.697439 0.0162,0.340602 0.0162,0.583894 z m -9.53701,13.575628 q 0.17842,-0.29195 0.40549,-0.56768 0.24329,-0.29195 0.43793,-0.64877 0.35682,-0.72988 -0.35683,-0.85963 -0.12976,-0.0325 -0.29195,0.0325 -0.47036,0.63256 -1.02182,1.28133 -0.0811,0.0649 -0.37305,0.32439 -0.14597,0.48658 -0.0162,0.74609 0.21084,0.48658 0.79475,0.0649 0.29194,-0.22708 0.4217,-0.37305 z m 5.70923,-4.168377 q 0.0487,-0.194638 0.11354,-0.389267 0.0811,-0.194637 0.12975,-0.389265 0.14597,-0.632557 -0.35683,-0.632557 -0.17841,0 -0.43792,0.291946 -0.11354,0.259511 -0.22707,0.519021 -0.11354,0.243292 -0.17841,0.454147 -0.0487,0.162195 -0.14598,0.454135 -0.0325,0.2433 0.19463,0.35683 0.34061,0.19463 0.69744,-0.30816 0.11353,-0.11354 0.21085,-0.35683 z m -7.57445,1.297547 q 0.16219,-0.22707 0.37304,-0.454147 0.21085,-0.24329 0.37305,-0.53524 0.32438,-0.600109 -0.30817,-0.697427 -0.0973,-0.01619 -0.27573,0.01619 -0.38927,0.502807 -0.90829,1.054267 -0.19463,0.14597 -0.32438,0.25951 -0.12976,0.405477 -0.0162,0.600117 0.19463,0.40548 0.71365,0.0649 0.25951,-0.19463 0.37305,-0.30816 z m 4.78472,-7.20141 q 0.11353,0.697439 0.37305,0.794749 0.25951,0.09732 0.72986,0.06486 0.63256,-0.04866 0.97317,-0.25951 0.68121,-0.43792 1.20023,-1.897671 -0.51902,0.1622 -0.97316,0.1622 -0.45414,0 -1.0867,0.04866 -0.89207,0.08113 -1.21645,1.086696 z m -0.21086,9.40725 q -0.22707,0.24329 -0.37304,0.35683 -0.12976,0.0973 -0.22708,0.19462 -0.0811,0.0811 -1.05426,1.07048 -0.37304,0.40548 -0.89206,0.51902 -0.34061,0.0973 -0.95695,-0.0811 -2.02742,-0.53524 -3.19522,-2.14096 -0.45414,-0.60011 -0.64877,-1.44353 -0.17841,-0.85963 0.17842,-2.173394 0.35682,-1.329988 2.57888,-3.033023 2.41668,-1.849008 2.83839,-2.935712 0.35682,-0.632557 0.81097,-1.394861 0.47036,-0.762313 1.10291,-1.47597 0.38927,-0.275728 0.72988,-0.632557 0.35683,-0.373047 0.69743,-0.762312 V 5.902172 q 0.89207,0.17841 1.31377,0.51902 0.19464,0.210856 0.42171,0.389266 0.24329,0.17841 0.43792,0.389265 0.40548,-0.729876 0.51902,-1.216451 0.0162,-0.113537 0.11354,-0.454147 0.0973,-0.340602 0.19463,-1.119133 0.24329,-0.06486 0.42171,0.129755 0.74608,0.843405 1.41109,1.881445 2.96814,1.184015 5.41726,2.805958 2.46535,1.621935 3.77912,3.373633 3.71424,5.044231 3.71424,14.85695 0,2.05987 -0.21085,3.7629 h -22.13946 q -0.21086,-2.10852 2.23827,-4.47655 1.10292,-1.07048 2.28694,-2.07608 1.20023,-1.0056 2.33559,-2.04364 2.10852,-1.94633 2.33559,-3.11413 -0.0811,-0.19463 -0.30817,-0.259507 -0.56768,0.340607 -1.13535,0.437917 -0.56769,0.0973 -1.11914,0.12976 -0.35683,0.0162 -0.71366,0.0325 -0.3406,0 -0.81097,-0.1622 -0.63255,0.71366 -1.08669,1.23268 -0.43793,0.5028 -1.00561,0.90828 z"
       id="path406"
       style="font-size:40px;line-height:1.25;font-family:'Chess Leipzig';-inkscape-font-specification:'Chess Leipzig';white-space:pre;stroke-width:0.830433" />
    <path
       d="m 186.70718,32.201913 h -8.83956 q 0.30816,-3.48717 2.96814,-5.88763 0.43793,-0.40549 0.48659,-0.43793 1.37864,-1.13536 2.35181,-2.70864 -2.49779,-1.63815 -2.49779,-4.62252 0,-1.849016 1.11914,-3.324977 0.37304,-0.470366 0.79475,-1.070478 0.43793,-0.600121 0.69744,-1.167796 -0.38927,0.09732 -1.18403,0.308165 -0.77853,0.210855 -1.15157,0.35683 1.11914,-1.038042 2.12474,-2.465347 1.02182,-1.427306 1.20023,-3.033023 -0.82718,-0.843412 -0.82718,-1.978772 0,-1.135351 0.79475,-1.946326 0.81096,-0.810968 1.96254,-0.810968 1.11914,0 1.93011,0.810968 0.81097,0.810975 0.81097,1.946326 0,1.151578 -0.82719,1.978772 0.17841,1.605717 1.20023,3.033023 1.03804,1.427306 2.15719,2.465347 -0.37305,-0.145974 -1.18402,-0.35683 -0.79476,-0.210847 -1.18402,-0.308165 0.25951,0.567675 0.68122,1.167796 0.43792,0.600112 0.82719,1.070478 1.11914,1.475961 1.11914,3.324977 0,2.98437 -2.4978,4.62252 0.92452,1.55706 2.3356,2.70864 0.24329,0.19464 0.48658,0.43793 2.6762,2.40046 2.96815,5.88763 z"
       id="path408"
       style="font-size:40px;line-height:1.25;font-family:'Chess Leipzig';-inkscape-font-specification:'Chess Leipzig';white-space:pre;stroke-width:0.830433" />
    <path
       d="m 12.235853,56.655713 -1.573277,-0.51902 -1.216454,0.97316 1.540842,0.51902 z m 14.029779,0.0487 q 0.113528,0.34061 0.113528,0.64878 0,0.95695 -0.69743,1.47597 -0.06486,0.27573 -0.09732,0.55145 0.600121,0.84341 0.600121,1.36243 0,1.36243 -2.627539,2.33559 -2.627547,0.97317 -6.309346,0.97317 -3.698016,0 -6.325561,-0.97317 -2.611321,-0.97316 -2.611321,-2.33559 0,-0.53524 0.632556,-1.39486 -0.03244,-0.17842 -0.09732,-0.5028 -0.713653,-0.51903 -0.713653,-1.49219 0,-0.30817 0.09732,-0.63256 0.162193,-0.40548 -0.06488,-0.63256 -0.227072,-0.22706 -0.5190201,-0.63255 -0.2595102,-0.81097 -0.2595102,-1.11914 0.016218,-0.14597 0.048655,-0.32439 0.048655,-0.17841 0.048655,-0.4217 -0.7136531,-0.71365 -1.4921838,-1.34621 -0.7623114,-0.64877 -1.2002343,-1.55706 -0.5190205,-1.07048 -0.9569442,-2.15718 -0.4217045,-1.10291 -0.4217045,-2.15717 0,-1.99499 1.0542609,-3.37364 1.0542601,-1.37865 2.8546124,-2.15718 2.4004698,-0.16219 2.0274238,-0.16219 2.822175,0 5.125331,2.0923 v -5.69301 h 5.530806 v 5.70923 q 2.303155,-2.10852 5.157768,-2.10852 -0.405484,0 2.027427,0.16219 1.767908,0.77853 2.822167,2.15718 1.070486,1.37865 1.070486,3.37364 0,1.05426 -0.437929,2.14095 -0.421702,1.0867 -0.924504,2.15718 -0.43792,0.92451 -1.216451,1.60572 -0.778531,0.68121 -1.47597,1.36243 -0.01619,0.19463 0.01619,0.37304 0.04866,0.17842 0.06486,0.32439 0.01619,0.22708 -0.259511,1.11914 -0.291946,0.40549 -0.51902,0.63255 -0.210855,0.22708 -0.06486,0.61634 z m -9.017985,-14.06221 q -1.670598,0 -1.670598,1.6706 0,1.6706 1.670598,1.6706 1.670598,0 1.670598,-1.6706 0,-1.6706 -1.670598,-1.6706 z m -0.648775,-2.93571 -1.151578,-1.11913 v 2.48157 l 1.151578,-0.92451 q -0.04866,-0.0649 -0.04866,-0.21085 0,-0.0973 0.04866,-0.22708 z m 0.373047,0.85963 -0.973168,1.05426 h 2.497792 l -1.03804,-1.03804 q -0.162201,0.0325 -0.210856,0.0325 -0.162191,0 -0.275728,-0.0487 z m 0.924504,-0.37304 1.151578,0.87585 v -2.48157 l -1.167796,1.07048 q 0.04866,0.12975 0.04866,0.27573 0,0.0973 -0.03247,0.25951 z m -0.454139,-0.92451 1.054259,-1.24889 h -2.497792 l 0.989386,1.26511 q 0.09732,-0.0487 0.25951,-0.0487 0.06486,0 0.194637,0.0325 z m 1.767908,16.88438 -1.994981,-0.95694 -1.91389,0.95694 1.978763,0.95694 z m -3.243877,-4.41168 q -0.01619,-1.99498 -0.340602,-4.00619 -0.324392,-2.02742 -0.648776,-2.46534 -2.011208,-2.22206 -4.541432,-2.22206 -2.173399,0 -3.3087554,1.45974 -0.7460923,0.95695 -0.7460923,2.51401 0,3.24388 2.4166887,6.06605 0.27573,-0.12976 0.53524,-0.22707 0.27573,-0.0973 0.551459,-0.19463 -0.145974,-0.32439 -0.291948,-0.61634 -0.145975,-0.29195 -0.308169,-0.76231 -0.308169,-0.90829 -0.243291,-1.71926 0.113536,-0.5028 0.55146,-0.5028 0.194632,0 0.51902,0.34061 -0.0811,-0.43792 -0.0811,-0.55146 0,-1.5084 1.281332,-1.86523 1.346214,0.0649 1.784135,2.01121 0.145973,-0.48659 0.405484,-0.55146 0.25951,-0.0649 0.34061,-0.0649 0.194628,0 0.340602,0.0973 0.551465,0.68121 0.68122,1.97876 0.03247,0.29195 0.03247,0.56768 0.01619,0.27574 0.06486,0.77853 0.502802,-0.0973 1.005604,-0.0649 z m -4.849596,0.55146 q -0.145975,-0.37305 -0.308169,-0.82719 -0.145974,-0.45414 -0.389265,-0.97316 -0.129755,-0.25951 -0.324388,-0.25951 -0.275729,0 -0.291948,0.45414 -0.03244,0.38927 0.794749,1.78414 0.129755,-0.0487 0.259511,-0.0811 0.145974,-0.0487 0.25951,-0.0973 z m 1.621936,-0.24329 q -0.06486,-2.12474 -0.632557,-3.43851 -0.194629,-0.34061 -0.567675,-0.34061 -0.470363,0 -0.470363,0.47037 -0.01622,0.0162 -0.01622,0.4217 0,0.69743 0.794746,3.04925 0.68122,-0.12976 0.892067,-0.1622 z m 1.524625,-0.16219 q 0.08113,-1.2489 -0.129755,-2.10852 -0.06486,-0.27573 -0.308166,-0.34061 -0.34061,-0.0487 -0.454147,0.37304 -0.129755,0.69743 0.227074,2.15719 0.324384,-0.0811 0.664994,-0.0811 z m 10.218217,8.04481 q -0.129755,-1.16779 -3.243878,-1.78413 -0.973167,-0.19463 -1.962545,-0.22707 -0.989386,-0.0325 -2.027427,-0.0811 -1.021822,0.0973 -1.930108,0.14597 -0.892067,0.0487 -1.621935,0.19464 -3.584487,0.72987 -3.665584,1.75169 -0.129756,0.19464 -0.129756,0.40548 0,0.72988 1.167796,1.45975 0,-0.74609 0.259511,-1.11914 0.145975,-0.17841 0.291949,-0.35682 0.162194,-0.19463 0.324386,-0.38927 1.459743,-0.87585 5.336178,-0.77853 3.795343,-0.0973 5.287523,0.77853 0.356829,0.45415 0.616339,0.74609 0.25951,0.40549 0.25951,1.11914 1.167796,-0.72987 1.167796,-1.45975 0,-0.21084 -0.129755,-0.40548 z m -1.881453,1.50841 q 0,-1.45975 -5.384833,-1.45975 -5.303742,0 -5.303742,1.45975 0.340611,1.44352 5.368615,1.44352 4.946913,0 5.31996,-1.44352 z m -0.194629,-4.78472 1.23267,0.97316 1.557061,-0.51902 -1.23267,-0.97316 z m 3.276315,-3.58449 q 2.319373,-2.87083 2.319373,-6.04983 0,-1.55706 -0.746094,-2.51401 -1.151577,-1.45974 -3.308751,-1.45974 -2.546447,0 -4.541429,2.22206 -0.34061,0.43792 -0.664994,2.46534 -0.324392,2.01121 -0.34061,4.00619 0.583894,-0.0487 1.038041,0.0649 0.01619,-0.50279 0.01619,-0.77853 0.01619,-0.27573 0.06486,-0.56768 0.113529,-1.29755 0.681212,-1.97876 0.129756,-0.0973 0.340602,-0.0973 0.08113,0 0.340611,0.0649 0.25951,0.0649 0.405483,0.55146 0.421702,-1.94633 1.784135,-2.01121 1.281333,0.35683 1.281333,1.86523 0,0.11354 -0.08113,0.55146 0.308173,-0.34061 0.51902,-0.34061 0.421702,0 0.551457,0.5028 0.04866,0.81097 -0.243283,1.71925 -0.178419,0.47037 -0.324392,0.76232 -0.129755,0.29195 -0.275729,0.5839 0.291947,0.11354 0.583894,0.22707 0.308174,0.0973 0.600121,0.21085 z m -2.416692,-0.77857 q 0.09732,0.0487 0.227073,0.0973 0.145974,0.0325 0.291947,0.0811 0.810976,-1.39487 0.794757,-1.78413 -0.03247,-0.45415 -0.291955,-0.45415 -0.210847,0 -0.324384,0.25951 -0.25951,0.51902 -0.421702,0.97317 -0.145981,0.45414 -0.275736,0.82718 z m -1.621935,-0.24329 q 0.194628,0.0325 0.892067,0.1622 0.794749,-2.35182 0.794749,-3.04925 0,-0.40548 -0.01619,-0.4217 0,-0.47037 -0.470366,-0.47037 -0.389265,0 -0.567675,0.34061 -0.583902,1.31377 -0.632557,3.43851 z m -1.524625,-0.16219 q 0.34061,0 0.664994,0.0811 0.34061,-1.45975 0.227074,-2.15718 -0.129756,-0.4217 -0.454139,-0.37305 -0.25951,0.0649 -0.308174,0.34061 -0.227073,0.85962 -0.129755,2.10852 z m 4.849603,3.58448 q 0.729867,-0.0811 0.729867,-0.81097 0,-0.47036 -0.421702,-0.71365 -1.362433,-0.55146 -3.470951,-0.89207 -2.092301,-0.35683 -4.573866,-0.35683 -5.206423,0 -8.077256,1.28134 -0.356827,0.27572 -0.356827,0.68121 0,0.82719 0.827189,0.79476 2.887055,-1.08671 7.606894,-1.08671 4.784721,0 7.736652,1.10292 z"
       id="path410"
       style="font-size:40px;line-height:1.25;font-family:'Chess Leipzig';-inkscape-font-specification:'Chess Leipzig';white-space:pre;stroke-width:0.830433" />
    <path
       d="m 44.520422,51.862993 q -0.454147,-0.38926 -1.394869,-1.54084 -1.638162,-1.84901 -1.83279,-1.84901 -0.162192,0 -0.162192,0.22707 0,0.29195 0.51902,1.18402 0.454139,1.28133 0.746086,2.35181 0.729876,-0.14598 2.124745,-0.37305 z m 3.827772,-0.32438 q -0.421702,-0.35683 -0.810968,-1.18403 -0.470365,-0.95694 -1.135359,-2.96814 -0.25951,-0.79475 -0.486584,-1.34621 -0.227065,-0.55146 -0.324383,-0.53524 -0.04866,0.0162 -0.04866,0.25951 0.01619,0.24329 0.01619,0.38927 0,0.43792 0.405483,2.22205 0.389266,1.84901 0.389266,2.64377 0.01619,0.48657 -0.09732,0.69743 0.843413,-0.11354 2.0923,-0.17841 z m 4.168382,-0.0487 q -0.470358,-0.53524 -0.616331,-1.80035 -0.06486,-0.5028 -0.178418,-1.44352 -0.09732,-0.95695 -0.145974,-2.36803 -0.04866,-1.02183 -0.162192,-1.76792 -0.113536,-0.74609 -0.227073,-0.77853 -0.129755,0.0325 -0.227074,0.77853 -0.08105,0.74609 -0.129755,1.76792 -0.08105,1.41108 -0.194628,2.36803 -0.113537,0.94072 -0.162192,1.44352 -0.145982,1.36243 -0.616339,1.80035 0.324384,0 0.648776,-0.0487 0.340601,-0.0649 0.681212,-0.0649 0.34061,0 0.664994,0.0649 0.34061,0.0487 0.664994,0.0487 z m 3.616924,0.21086 q -0.113536,-0.24329 -0.113536,-0.68121 0,-0.8272 0.405483,-2.64377 0.389266,-1.81657 0.389266,-2.22205 0,-0.51902 -0.01619,-0.53524 -0.227065,-0.0487 -0.827186,1.76791 -0.616338,1.88145 -1.135359,2.96814 -0.373047,0.77853 -0.794749,1.20025 0.762312,0.0325 2.0923,0.14597 z m 3.892654,0.53524 q 0.145973,-0.60012 0.324392,-1.18402 0.194628,-0.60012 0.389265,-1.18401 0.51902,-0.95695 0.51902,-1.1678 0,-0.22707 -0.1622,-0.22707 -0.25951,0 -1.83279,1.83279 -0.486575,0.56767 -0.827185,0.97317 -0.340611,0.38926 -0.567676,0.61633 1.102914,0.14597 2.157174,0.34061 z m -21.18252,-8.32055 q -1.086696,0 -1.086696,1.0867 0,1.10292 1.086696,1.10292 1.102914,0 1.102914,-1.10292 0,-1.0867 -1.102914,-1.0867 z m 13.137703,-3.98997 q 0.243292,2.62754 0.486584,5.25509 0.25951,2.61132 0.51902,5.22264 0.01619,0.37304 0.373047,0.37304 0.25951,-0.0162 0.356829,-0.22707 1.411079,-3.40607 2.076081,-5.2713 0.681213,-1.88145 0.827186,-2.31938 -0.746094,-0.71365 -0.746094,-1.60571 0,-0.77853 0.551457,-1.32999 0.567684,-0.56769 1.362433,-0.56769 0.778531,0 1.329988,0.56769 0.567684,0.55146 0.567684,1.32999 0,1.41108 -1.459752,1.91389 l -1.184014,7.07165 q -0.08105,0.48658 0.34061,0.48658 0.340602,0 0.519021,-0.17841 1.946326,-1.94633 2.789731,-3.01681 0.85963,-1.07048 1.200241,-1.49218 -0.356829,-0.47037 -0.356829,-1.13536 0,-1.89767 1.897663,-1.89767 0.778531,0 1.329996,0.56768 0.567676,0.55146 0.567676,1.32999 0,0.79475 -0.567676,1.34621 -0.551465,0.55146 -1.329996,0.55146 -0.243283,0 -0.43792,-0.0487 -1.297551,2.80595 -2.076082,5.74167 -0.664994,2.38424 -0.827186,4.52521 0.09731,0.45414 0.113537,0.47035 -0.04866,-0.19462 0.06486,0.37305 0.06486,0.25951 0.06486,0.5028 -0.09732,0.25951 -0.405492,0.5839 -0.275729,0.30817 -0.405484,1.21646 0.600121,0.8434 0.600121,1.36242 0,1.36243 -2.627539,2.33559 -2.627548,0.97317 -6.309346,0.97317 -3.698016,0 -6.325563,-0.97317 -2.611321,-0.97316 -2.611321,-2.33559 0,-0.53524 0.632557,-1.39486 -0.194628,-0.92451 -0.421702,-1.18402 -0.324392,-0.32439 -0.421702,-0.5839 0,-0.21085 0.04866,-0.48658 0.03247,-0.12976 0.04866,-0.22707 0.01619,-0.11353 0.03247,-0.1622 0.06486,-0.17841 0.129755,-0.5028 -0.1622,-2.04364 -0.794757,-4.49276 -0.843405,-3.08169 -2.092301,-5.77411 -0.275728,0.0811 -0.567675,0.0811 -1.897672,0 -1.897672,-1.89767 0,-1.89766 1.897672,-1.89766 1.897671,0 1.897671,1.89766 0,0.5839 -0.291955,1.05426 0.956949,1.21646 1.91389,2.27072 0.973168,1.03804 2.140964,2.28693 0.145973,0.21085 0.421702,0.21085 0.470357,0 0.421702,-0.48658 -0.03247,-0.14597 -0.405484,-2.31937 -0.373047,-2.1734 -0.810967,-4.73606 -1.540843,-0.4217 -1.540843,-1.93011 0,-0.77853 0.551457,-1.32999 0.567675,-0.56768 1.346206,-0.56768 1.897672,0 1.897672,1.89767 0,0.84341 -0.648776,1.54084 0.08113,0.34061 0.405484,1.36243 0.324392,1.0056 1.005604,2.65998 0.373047,0.90829 0.746094,1.83279 0.389265,0.90829 0.778531,1.80035 0.09731,0.21086 0.340602,0.21086 0.34061,-0.0162 0.389265,-0.35683 0.03247,-0.19464 0.989386,-10.46151 -1.151578,-0.61634 -1.151578,-1.83279 0,-0.77853 0.551457,-1.3462 0.551466,-0.56769 1.346215,-0.56769 0.77853,0 1.329988,0.56769 0.567675,0.56767 0.567675,1.3462 0,1.10292 -1.054259,1.81657 z M 47.6021,56.696343 q -0.859623,0 -0.859623,0.90828 0,0.90829 0.859623,0.90829 0.875849,0 0.875849,-0.90829 0,-0.90828 -0.875849,-0.90828 z m -4.946913,-3.24388 q 0.194637,0.79475 0.34061,1.44352 0.162192,0.63256 0.275729,1.37865 0.129755,0.0649 0.291947,0.0649 2.887057,-1.0867 7.606896,-1.0867 4.784721,0 7.736652,1.10292 0.162192,-0.0325 0.243284,-0.0811 0.09732,-0.72988 0.25951,-1.32999 0.1622,-0.61634 0.356828,-1.42731 -1.849008,-0.51902 -4.038626,-0.85963 -2.189619,-0.35683 -4.541429,-0.35683 -2.351811,0 -4.492774,0.34061 -2.140955,0.34061 -4.038627,0.81097 z m 16.284271,4.91447 -1.167796,-1.11913 -1.492188,0.60011 1.184014,1.11914 z m -5.693007,-1.15157 -2.0923,-1.0867 -2.011208,1.0867 2.0923,1.10292 z m -7.006776,0.64877 -1.638161,-0.55145 -1.297551,1.02182 1.621943,0.55145 z m 17.192548,-13.94867 q -1.102914,0 -1.102914,1.0867 0,1.10292 1.102914,1.10292 1.086704,0 1.086704,-1.10292 0,-1.0867 -1.086704,-1.0867 z m -18.944246,-3.66558 q -1.086696,0 -1.086696,1.10292 0,1.08669 1.086696,1.08669 1.102923,0 1.102923,-1.08669 0,-1.10292 -1.102923,-1.10292 z m 6.649956,-3.24388 q -1.086705,0 -1.086705,1.10292 0,1.08669 1.086705,1.08669 1.086696,0 1.086696,-1.08669 0,-1.10292 -1.086696,-1.10292 z m 6.649947,3.24388 q -1.102923,0 -1.102923,1.10292 0,1.08669 1.102923,1.08669 1.086696,0 1.086696,-1.08669 0,-1.10292 -1.086696,-1.10292 z m -3.033023,16.44646 q -0.85963,0 -0.85963,0.90828 0,0.90829 0.85963,0.90829 0.875841,0 0.875841,-0.90829 0,-0.90828 -0.875841,-0.90828 z m -3.568269,2.90327 q -3.081686,0 -5.23886,0.47036 -2.140963,0.47036 -2.140963,1.34621 0,0.90829 2.140963,1.45975 2.157174,0.55145 5.23886,0.55145 3.065467,0 5.271304,-0.55145 2.222056,-0.55146 2.222056,-1.45975 0,-0.87585 -2.222056,-1.34621 -2.205837,-0.47036 -5.271304,-0.47036 z"
       id="path412"
       style="font-size:40px;line-height:1.25;font-family:'Chess Leipzig';-inkscape-font-specification:'Chess Leipzig';white-space:pre;stroke-width:0.830433" />
    <path
       d="m 85.036325,36.170673 h 2.238274 v 2.20584 h 3.357414 v -2.20584 h 3.860217 v 5.79032 l -2.611321,3.01681 q 0.843404,1.07048 0.03247,2.2545 -0.129755,0.21084 -0.129755,0.38926 0,0.21085 0.129755,0.40549 0.340611,0.5028 0.324392,1.4273 0,0.90829 -0.34061,1.42731 -0.113537,0.16219 -0.113537,0.3406 0,0.22708 0.145974,0.42171 0.762312,1.15157 -0.03247,2.27071 -0.113537,0.19464 -0.113537,0.37305 0,0.17841 0.113537,0.37305 0.356828,0.53523 0.356828,1.49218 0,0.94073 -0.389265,1.39487 l 2.627539,1.31376 v 1.39487 h 1.086696 v 4.70362 H 85.036325 74.477506 v -4.6874 h 1.102914 v -1.39487 l 2.611321,-1.32998 q -0.389265,-0.45414 -0.389265,-1.39487 0,-0.94073 0.356828,-1.47597 0.129755,-0.17841 0.129755,-0.37304 0,-0.16219 -0.129755,-0.37305 -0.794749,-1.13536 -0.01619,-2.27071 0.145973,-0.25951 0.145973,-0.42171 0,-0.16219 -0.113536,-0.35682 -0.356829,-0.51902 -0.373047,-1.42731 0,-0.9245 0.34061,-1.4273 0.145973,-0.19464 0.145973,-0.40549 0,-0.17842 -0.129755,-0.37304 -0.827186,-1.18402 0.03247,-2.27072 l -2.61132,-3.00059 v -5.79032 h 3.860216 v 2.18962 l 3.341196,0.0162 v -2.20584 z m -5.984953,8.01238 q 2.773512,-0.43792 5.984953,-0.43792 3.260096,0 6.033617,0.43792 l 0.940722,-1.18402 q -3.308759,-0.5839 -6.974339,-0.5839 -3.698016,0 -6.990557,0.5839 z m -3.422288,17.19256 v 2.48156 h 18.798264 v -2.48156 z m 9.407241,-3.30876 q -3.373633,0 -6.114708,0.22707 l -2.189619,1.1678 v 0.81096 h 16.608654 v -0.81096 q -0.551457,-0.29195 -1.102914,-0.58391 -0.551465,-0.29194 -1.086704,-0.58389 -2.919486,-0.22707 -6.114709,-0.22707 z m 8.304327,-20.79326 h -1.670598 v 2.27071 h -5.547033 v -2.25449 h -2.18961 v 2.25449 h -5.530815 v -2.27071 h -1.670598 q 0,1.03804 0,2.07608 0,1.02183 0,2.04365 2.076082,-0.12976 4.135945,-0.24329 2.076082,-0.11354 4.168382,-0.11354 3.941309,0 8.304327,0.35683 z m -5.368614,7.76909 q -0.535239,0.38926 -0.535239,1.10291 0,0.71366 0.535239,1.10293 0.502802,0.38926 1.492179,0.38926 0.989386,0 1.508407,-0.38926 0.51902,-0.38927 0.51902,-1.10293 0,-0.71365 -0.51902,-1.10291 -0.519021,-0.37305 -1.508407,-0.37305 -0.989377,0 -1.492179,0.37305 z m -4.363019,0 q -0.502802,0.38926 -0.502802,1.10291 0,0.71366 0.502802,1.10293 0.486584,0.38926 1.411088,0.38926 0.940722,0 1.443524,-0.38926 0.486584,-0.38927 0.486584,-1.10293 0,-0.71365 -0.486584,-1.10291 -0.502802,-0.37305 -1.443524,-0.37305 -0.924504,0 -1.411088,0.37305 z m -4.508992,0 q -0.535239,0.38926 -0.535239,1.10291 0,0.71366 0.535239,1.10293 0.502802,0.38926 1.475969,0.38926 0.989378,0 1.524617,-0.38926 0.51902,-0.38927 0.51902,-1.10293 0,-0.71365 -0.51902,-1.10291 -0.535239,-0.37305 -1.524617,-0.37305 -0.973167,0 -1.475969,0.37305 z m 10.899429,3.29253 q -0.194628,0.38927 -0.194628,1.11914 0,0.71365 0.194628,1.0867 0.178419,0.38926 0.567684,0.38926 0.389265,0 0.583894,-0.38926 0.194637,-0.37305 0.194637,-1.0867 0,-0.72987 -0.194637,-1.11914 -0.194629,-0.35683 -0.583894,-0.35683 -0.389265,0 -0.567684,0.35683 z m -4.152163,0 q -0.486576,0.38927 -0.486576,1.11914 0,0.71365 0.486576,1.0867 0.486583,0.38926 1.394869,0.38926 0.924504,0 1.411088,-0.38926 0.486584,-0.37305 0.486584,-1.0867 0,-0.72987 -0.486584,-1.11914 -0.486584,-0.37304 -1.411088,-0.37304 -0.908286,0 -1.394869,0.37304 z m -4.427893,0 q -0.486583,0.38927 -0.486583,1.11914 0,0.71365 0.486583,1.0867 0.470366,0.38926 1.39487,0.38926 0.924504,0 1.411088,-0.38926 0.470357,-0.37305 0.470357,-1.0867 0,-0.72987 -0.470357,-1.11914 -0.486584,-0.37304 -1.411088,-0.37304 -0.924504,0 -1.39487,0.37304 z m -2.497783,0 q -0.194637,0.38927 -0.194637,1.11914 0,0.71365 0.194637,1.0867 0.194628,0.38926 0.567675,0.38926 0.389265,0 0.583902,-0.38926 0.194629,-0.37305 0.194629,-1.0867 0,-0.72987 -0.194629,-1.11914 -0.194637,-0.35683 -0.583902,-0.35683 -0.373047,0 -0.567675,0.35683 z m 11.077839,6.66617 q -0.194628,0.37305 -0.194628,1.10292 0,0.72988 0.194628,1.10291 0.178419,0.37305 0.567684,0.37305 0.389265,0 0.583894,-0.37305 0.194637,-0.37303 0.194637,-1.10291 0,-0.72987 -0.194637,-1.10292 -0.194629,-0.35682 -0.583894,-0.35682 -0.389265,0 -0.567684,0.35682 z m -11.077839,0 q -0.194637,0.37305 -0.194637,1.10292 0,0.72988 0.194637,1.10291 0.194628,0.37305 0.567675,0.37305 0.389265,0 0.583902,-0.37305 0.194629,-0.37303 0.194629,-1.10291 0,-0.72987 -0.194629,-1.10292 -0.194637,-0.35682 -0.583902,-0.35682 -0.373047,0 -0.567675,0.35682 z m 2.497783,0 q -0.486583,0.38926 -0.486583,1.16779 0,0.77853 0.486583,1.03804 0.454147,0.25952 1.427307,0.25952 0.989385,0 1.378651,-0.25952 0.373047,-0.25951 0.421702,-1.03804 0.04866,-0.77853 -0.421702,-1.16779 -0.486584,-0.37304 -1.411088,-0.37304 -0.924504,0 -1.39487,0.37304 z m 4.427893,0 q -0.486576,0.38926 -0.486576,1.16779 0,0.77853 0.486576,1.03804 0.470365,0.25952 1.394869,0.25952 0.940723,0 1.411088,-0.25952 0.454139,-0.25951 0.470365,-1.03804 0.01619,-0.77853 -0.470365,-1.16779 -0.486584,-0.37304 -1.411088,-0.37304 -0.908286,0 -1.394869,0.37304 z m 2.124745,-3.30875 q -0.535239,0.38926 -0.535239,1.11914 0,0.71365 0.535239,1.08669 0.502802,0.38927 1.492179,0.38927 0.989386,0 1.508407,-0.38927 0.51902,-0.37304 0.51902,-1.08669 0,-0.72988 -0.51902,-1.11914 -0.519021,-0.37305 -1.508407,-0.37305 -0.989377,0 -1.492179,0.37305 z m -4.363019,0 q -0.502802,0.38926 -0.502802,1.11914 0,0.71365 0.502802,1.08669 0.486584,0.38927 1.411088,0.38927 0.940722,0 1.443524,-0.38927 0.486584,-0.37304 0.486584,-1.08669 0,-0.72988 -0.486584,-1.11914 -0.502802,-0.37305 -1.443524,-0.37305 -0.924504,0 -1.411088,0.37305 z m -4.508992,0 q -0.535239,0.38926 -0.535239,1.11914 0,0.71365 0.535239,1.08669 0.502802,0.38927 1.475969,0.38927 0.989378,0 1.524617,-0.38927 0.51902,-0.37304 0.51902,-1.08669 0,-0.72988 -0.51902,-1.11914 -0.535239,-0.37305 -1.524617,-0.37305 -0.973167,0 -1.475969,0.37305 z"
       id="path414"
       style="font-size:40px;line-height:1.25;font-family:'Chess Leipzig';-inkscape-font-specification:'Chess Leipzig';white-space:pre;stroke-width:0.830433" />
    <path
       d="m 119.00987,57.061323 q -1.83279,0 -3.13034,0.32438 -1.29755,0.32439 -1.29755,0.77853 0,0.45415 1.29755,0.77853 1.29755,0.30817 3.13034,0.30817 1.83279,0 3.13034,-0.30817 1.31377,-0.32438 1.31377,-0.77853 0,-0.45414 -1.31377,-0.77853 -1.29755,-0.32438 -3.13034,-0.32438 z m 3.66558,-19.98229 q -0.69743,0 -0.69743,0.68121 0,0.69743 0.69743,0.69743 0.69744,0 0.69744,-0.69743 0,-0.68121 -0.69744,-0.68121 z m -3.89265,-0.0487 q -0.665,0 -0.665,0.66499 0,0.66499 0.665,0.66499 0.66499,0 0.66499,-0.66499 0,-0.66499 -0.66499,-0.66499 z m 2.64376,9.22883 v -0.82719 h -2.07608 v -2.77351 h -0.82719 v 2.77351 h -2.07608 v 0.82719 h 2.07608 v 3.87643 h 0.82719 v -3.87643 z m 0.69743,0.69744 h -2.07608 v 3.87643 h -2.22205 v -3.87643 h -2.07608 v -2.20584 h 2.07608 v -2.77352 h 2.22205 v 2.77352 h 2.07608 z m -1.62194,8.82334 -1.57328,-0.64877 -1.55706,0.64877 1.55706,0.64878 z m 4.73607,-8.70981 q 0.17841,-0.87585 -0.55146,-3.22766 -0.71366,-2.36803 -2.12475,-3.92509 -0.21084,-0.12976 -0.37304,-0.11353 -0.24329,0.0325 -0.45414,0.24328 -0.19464,0.21086 -0.0487,0.5028 1.71925,1.1678 2.62753,3.35742 0.90829,2.18962 0.92451,3.16278 z m -9.92627,6.21202 q 1.55706,-0.51902 3.61692,-0.51902 2.14096,0 3.64936,0.51902 1.97877,-3.98996 1.97877,-6.26068 0,-3.84399 -5.56325,-7.47713 -5.54703,3.63314 -5.54703,7.47713 0,2.44913 1.86523,6.26068 z m 6.95812,1.65438 -0.29195,-1.02182 q -1.36243,-0.32438 -3.06547,-0.32438 -1.6706,0 -2.9357,0.29194 l -0.32439,1.03804 q 1.3462,-0.35683 3.26009,-0.35683 2.01121,0 3.35742,0.37305 z m 0.5839,1.73548 -0.35683,-1.15158 -1.44352,0.30817 1.4273,0.9245 z m -7.75287,0.0162 0.29195,0.0649 1.4273,-0.9245 -1.37865,-0.30817 z m 3.81155,6.50398 q -1.20023,1.73547 -3.24387,1.73547 -0.21085,0 -0.42171,-0.0162 -0.19463,-0.0325 -0.38926,-0.0487 -0.47037,-0.0162 -1.37865,-0.1622 -0.90829,-0.16219 -2.02742,-0.72986 -0.98939,-0.85963 -2.51401,-0.85963 -1.1678,0 -2.02742,0.55145 -0.24329,0.11354 -0.60012,0.47037 -0.64878,0.69743 -1.05426,0.76231 -0.32439,-0.16219 -0.34061,-0.55146 -0.081,-0.76231 1.11914,-1.96254 -0.21085,0.0325 -0.79475,0.19463 -0.48658,0.14597 -0.64877,0.14597 -0.53524,0.0811 -0.56769,0.0162 -0.17841,-0.17841 0.12976,-0.72986 0.25951,-0.47037 1.0056,-0.8272 0.0973,-0.0487 0.61634,-0.27573 1.50841,-0.79475 3.16278,-0.79475 2.41669,0 4.36302,1.63817 0.77853,0.25951 1.57328,0.25951 2.43291,0 2.514,-2.01121 -1.57328,-0.14598 -2.62754,-0.53524 -1.03804,-0.38927 -1.03804,-0.90829 l 1.29755,-4.31435 q -1.13536,-1.78414 -1.88145,-3.63315 -0.74609,-1.849 -0.74609,-3.50338 0,-4.96313 5.38483,-7.62312 0,-0.21085 0.0487,-0.63256 -0.55146,-0.45413 -0.55146,-1.15157 0,-1.49218 1.5084,-1.49218 1.49219,0 1.49219,1.49218 0,0.64877 -0.47037,1.0867 0,0.5028 0.12976,0.68121 0.27572,0.38927 0.72987,0.40549 0.47036,-0.0162 0.77853,-0.42171 0.0649,-0.0973 0.12976,-0.60012 -0.42171,-0.43792 -0.42171,-1.08669 0,-1.52463 1.52462,-1.52463 1.52463,0 1.52463,1.52463 0,0.85962 -0.7461,1.32999 -0.0649,0.32439 -0.0325,0.51902 2.74108,3.24387 2.38425,7.49336 -0.11354,1.21645 -0.37305,2.40046 -0.25951,1.1678 -0.90828,2.20584 -0.24329,0.55146 -0.76231,1.24889 -0.5028,0.68122 -0.87585,1.28134 l 1.28134,4.31435 q -0.0162,0.51902 -1.07049,0.90829 -1.05426,0.38926 -2.65998,0.53524 0.0811,2.01121 2.53022,2.01121 0.79476,0 1.57329,-0.25951 1.9301,-1.63817 4.36301,-1.63817 1.65438,0 3.14656,0.79475 0.19464,0.0973 0.34061,0.1622 0.14598,0.0649 0.29195,0.11353 0.72988,0.37305 1.0056,0.8272 0.0487,0.14597 0.14598,0.37304 0.0973,0.22707 -0.0162,0.35682 -0.0487,0.0649 -0.56767,-0.0162 -0.1622,0 -0.64878,-0.14597 -0.60012,-0.1622 -0.81097,-0.19463 1.20024,1.21645 1.13536,1.96254 -0.0325,0.37305 -0.35683,0.55146 -0.40549,-0.0649 -1.05426,-0.76231 -0.32438,-0.32439 -0.5839,-0.47037 -0.90828,-0.55145 -2.02742,-0.55145 -1.55706,0 -2.53022,0.85963 -1.11914,0.56767 -2.02743,0.72986 -0.90828,0.14598 -1.36242,0.1622 -0.19464,0.0162 -0.4055,0.0487 -0.21084,0.0162 -0.40548,0.0162 -2.0923,0 -3.2601,-1.73547 z m 0,-1.18402 q 0.0487,0 1.07048,0.98938 0.94073,0.89207 2.30316,0.89207 0.11353,0 0.32439,0 0.21084,0 0.3406,0 0.69744,-0.0487 1.33,-0.16219 0.63254,-0.12976 1.50839,-0.48659 1.68682,-1.16779 3.11413,-1.16779 0.61634,0 1.13536,0.14597 0.21085,0.0487 0.24329,0.11354 0.0487,0.0487 0.37304,0.19463 1.0056,0.51903 0.50281,0.11354 -0.48659,-0.42171 -0.37305,-0.61634 0.0973,-0.21085 0.74609,-0.45414 0.665,-0.2433 -0.94073,-0.38927 -0.81096,-0.27573 -1.68681,-0.27573 -1.94633,0 -3.97375,1.57328 -0.71366,0.38927 -1.21646,0.43793 -0.48658,0.0487 -0.9245,0.0162 -1.26512,-0.0487 -1.70304,-0.34061 -0.4217,-0.30816 -0.76231,-0.68121 -0.32438,-0.34061 -0.63256,-1.31377 -0.16219,-0.51902 -0.77853,-0.5839 -0.63255,0.0649 -0.77853,0.5839 -0.29194,0.97316 -0.63255,1.31377 -0.34061,0.37305 -0.77854,0.68121 -0.4217,0.29195 -1.67059,0.34061 -0.45414,0.0325 -0.95694,-0.0162 -0.48659,-0.0487 -1.18402,-0.43793 -2.05986,-1.57328 -3.97375,-1.57328 -0.89207,0 -1.68682,0.27573 -1.62193,0.14597 -0.97316,0.38927 0.665,0.24329 0.77853,0.45414 0.0973,0.19463 -0.40548,0.61634 -0.48658,0.40549 0.53524,-0.11354 0.29194,-0.14597 0.3406,-0.19463 0.0487,-0.0649 0.25951,-0.11354 0.5028,-0.14597 1.15158,-0.14597 1.41109,0 3.0979,1.16779 0.87585,0.35683 1.49219,0.48659 0.63256,0.11353 1.36242,0.16219 0.11354,0 0.30818,0 0.21084,0 0.35682,0 1.34621,0 2.30315,-0.89207 1.00561,-0.98938 1.05426,-0.98938 z"
       id="path416"
       style="font-size:40px;line-height:1.25;font-family:'Chess Leipzig';-inkscape-font-specification:'Chess Leipzig';white-space:pre;stroke-width:0.830433" />
    <path
       d="m 142.58701,52.379063 q -0.12975,0.1622 -0.3406,0.30817 -0.45415,0.34061 -0.64877,-0.0649 -0.11354,-0.19463 0.0162,-0.60012 0.22706,-0.19463 0.30816,-0.25951 0.50281,-0.60012 0.82719,-1.05426 0.1622,-0.0325 0.24329,-0.0162 0.56769,0.0973 0.29196,0.69743 -0.14599,0.29195 -0.35683,0.53524 -0.19464,0.22707 -0.34061,0.45415 z m 4.80094,-7.20141 q 0.32439,-1.00559 1.23268,-1.08669 0.61633,-0.0487 1.07048,-0.0487 0.45414,0 0.97316,-0.1622 -0.51902,1.45975 -1.18402,1.89767 -0.35682,0.21086 -0.98938,0.25951 -0.47036,0.0325 -0.72987,-0.0649 -0.25951,-0.0973 -0.37305,-0.79475 z m -1.07048,8.62872 q 0.77853,-0.55146 1.10292,-1.15158 0.34061,-0.61634 0.92451,-1.16779 0.0162,-0.19464 0.0487,-0.43792 0.0325,-0.24329 0.0649,-0.51902 0.11354,-0.11354 0.17842,-0.12976 0.47036,-0.14598 0.55146,0.4217 0,0.1622 -0.0325,0.32439 -0.0162,0.14597 0.0162,0.25951 0.0973,0.11353 0.72988,0.24329 2.33559,0.0811 4.29813,-1.75169 0,-0.0162 0.0973,-0.14597 0.11354,-0.12976 0.12976,-0.1622 0.48658,-0.72987 0.77853,-3.03303 0.0325,-0.0648 0.17842,-0.14597 0.4217,-0.14597 0.53524,0.4217 -0.14598,2.0923 -0.63256,2.98437 -0.25951,0.47036 -0.5839,0.82719 0.27573,-0.14598 0.55146,-0.27573 0.27573,-0.12976 0.53524,-0.29195 0.82719,-0.5028 1.18402,-1.94633 0.17841,-0.30816 0.51902,-0.27573 0.35682,0.0649 0.27572,0.53524 -0.37304,2.02743 -1.58949,2.62754 -0.38927,0.19464 -0.79475,0.35683 -0.38927,0.14597 -0.76232,0.29195 0.95695,-0.0487 2.07609,-0.30817 0.21085,0 0.29194,0.17841 0.14598,0.32439 -0.30816,0.5839 -2.28694,0.63256 -2.90328,0.56768 -0.43792,1.37865 -2.14095,3.03303 -0.94073,0.90829 -1.94633,1.76791 -1.0056,0.84341 -1.97876,1.68682 -2.15718,1.89767 -2.62755,3.69802 3.71424,0.0162 6.16337,0.0162 2.46535,0 4.52521,0 2.05987,0 4.15217,0 2.0923,-0.0162 5.09288,-0.0162 0.22708,0 0.17841,-0.81098 -0.0325,-0.81096 -0.11353,-1.50839 -0.87585,0.0973 -1.65438,-0.90829 -0.77853,-1.02182 -0.71365,-2.33559 0.0162,-3.40607 -0.43792,-6.13093 -0.43792,-2.74108 -1.7517,-4.75228 -2.14096,-3.24388 -6.79592,-5.5146 -0.0649,0.40549 -0.14598,0.7461 -0.12975,0.51902 -0.48658,0.34061 -0.3406,-0.11354 -0.35683,-0.43793 0.0649,-0.29195 0.0811,-0.43792 -0.0162,-0.0487 -0.0325,-0.11354 -0.0162,-0.0811 -0.0162,-0.14597 -0.1622,-0.84341 -0.9245,-1.91389 -0.12976,0.68122 -0.25951,0.9245 -0.12976,0.24329 -0.22708,0.42171 -0.17841,0.25951 -0.32439,0.5028 -0.12975,0.24329 -0.30816,0.53524 -0.17841,-0.19463 -0.38927,-0.45414 -0.19464,-0.27573 -0.35683,-0.47036 -0.14597,-0.14598 -0.29194,-0.27574 -0.12976,-0.14597 -0.51902,-0.24328 0.34061,1.2651 -0.17842,1.73547 -0.25951,0.25951 -0.56768,0.69743 -0.30816,0.42171 -0.69743,0.77853 -0.22707,0.24329 -0.56768,0.56768 -0.32439,0.30817 -0.55146,0.81097 -0.30817,0.94072 -1.21645,1.89767 -0.89207,0.94073 -1.96255,1.89767 -2.33559,2.07608 -2.64376,3.0168 -0.4217,1.13536 0.0487,2.20584 0.43792,0.95695 1.20023,1.24889 0.45414,0.17841 1.11914,-0.68121 0.71365,-0.85963 0.94073,-0.79475 0.4217,0.11354 0.27573,0.60011 -0.0811,0.27573 -0.51902,0.79475 -0.45415,0.50281 -0.47037,0.66501 -0.0811,0.19462 0.32439,0.30816 0.5028,0.12976 1.88145,-1.21645 0.1622,-0.1622 0.34061,-0.29196 0.19463,-0.14597 0.38926,-0.32438 z m 0.53524,0.77853 q -0.22707,0.24329 -0.37304,0.35683 -0.12976,0.0973 -0.2433,0.19463 -0.14597,0.12975 -1.03804,1.07048 -0.37304,0.38926 -0.89206,0.51902 -0.37304,0.0973 -0.95695,-0.0811 -2.02742,-0.53524 -3.19522,-2.14097 -0.47035,-0.60011 -0.66499,-1.44352 -0.17841,-0.85963 0.19464,-2.1734 0.35682,-1.34621 2.56266,-3.03302 2.41668,-1.83279 2.85461,-2.93572 0.35682,-0.63255 0.81097,-1.39486 0.45414,-0.76231 1.0867,-1.47597 0.38926,-0.27573 0.72987,-0.63255 0.35683,-0.37305 0.71365,-0.76232 v -1.99498 q 0.90829,0.17841 1.29755,0.51902 0.19464,0.21086 0.43793,0.38927 0.24329,0.17841 0.43792,0.38926 0.40548,-0.72987 0.51902,-1.21645 0.0162,-0.11354 0.0973,-0.45415 0.0973,-0.3406 0.19463,-1.11913 0.24329,-0.0487 0.42171,0.12976 0.7623,0.82718 1.42731,1.88144 2.96814,1.18402 5.41726,2.80596 2.46535,1.62193 3.7629,3.37363 3.73046,5.06045 3.73046,14.85696 0,2.05986 -0.21085,3.7629 h -22.13946 q -0.21086,-2.10852 2.23827,-4.47655 1.10292,-1.07049 2.28694,-2.07608 1.20023,-1.00561 2.33559,-2.04365 2.10852,-1.94632 2.33559,-3.11412 -0.0811,-0.19464 -0.30817,-0.25951 -0.56768,0.34061 -1.13535,0.43792 -0.56769,0.0973 -1.11914,0.12976 -0.35683,0.0162 -0.71366,0.0325 -0.3406,0 -0.81097,-0.1622 -0.63255,0.71366 -1.08669,1.23268 -0.43793,0.5028 -1.00561,0.90829 z"
       id="path418"
       style="font-size:40px;line-height:1.25;font-family:'Chess Leipzig';-inkscape-font-specification:'Chess Leipzig';white-space:pre;stroke-width:0.830433" />
    <path
       d="m 186.70718,63.873383 h 7.49336 q -0.48658,-1.93011 -1.86523,-3.42229 -0.53524,-0.61634 -1.0056,-1.02183 -1.55706,-1.2651 -2.54645,-2.98436 -1.03804,0.38926 -2.07608,0.38926 -1.07048,0 -2.07608,-0.38926 -1.05426,1.75169 -2.54645,2.98436 -0.48657,0.40549 -1.00559,1.02183 -1.39487,1.49218 -1.86524,3.42229 z m 0,-8.12591 q 1.83279,0 3.13034,-1.29756 1.29755,-1.29755 1.29755,-3.14656 0,-1.5084 -0.94072,-2.70863 -1.08669,-1.39487 -1.6706,-2.95193 -0.97316,-0.12976 -1.81657,-0.12976 -0.89207,0 -1.81657,0.12976 -0.66499,1.65437 -1.68682,2.95193 -0.94072,1.20023 -0.94072,2.70863 0,1.84901 1.29755,3.14656 1.29755,1.29756 3.14656,1.29756 z m 0,-15.16513 q 1.65438,0 1.65438,-1.65438 0,-1.65438 -1.65438,-1.65438 -1.65438,0 -1.65438,1.65438 0,1.65438 1.65438,1.65438 z m 0,3.82778 q 1.23268,0 2.18962,0.30816 -0.37305,-0.68121 -0.77853,-1.50841 -0.38927,-0.8434 -0.5028,-1.67059 -0.45414,0.12975 -0.90829,0.12975 -0.48658,0 -0.9245,-0.12975 -0.12976,0.82719 -0.51902,1.67059 -0.38927,0.8272 -0.7461,1.50841 1.28134,-0.30816 2.18962,-0.30816 z m 0,20.54996 h -8.83956 q 0.30816,-3.48717 2.96814,-5.88764 0.43793,-0.40549 0.48659,-0.43793 1.37864,-1.13535 2.35181,-2.70863 -2.49779,-1.63816 -2.49779,-4.62253 0,-1.84901 1.11914,-3.32497 0.37304,-0.47037 0.79475,-1.07048 0.43793,-0.60012 0.69744,-1.1678 -0.38927,0.0973 -1.18403,0.30817 -0.77853,0.21085 -1.15157,0.35683 1.11914,-1.03804 2.12474,-2.46535 1.02182,-1.42731 1.20023,-3.03302 -0.82718,-0.84341 -0.82718,-1.97877 0,-1.13536 0.79475,-1.94633 0.81096,-0.81097 1.96254,-0.81097 1.11914,0 1.93011,0.81097 0.81097,0.81097 0.81097,1.94633 0,1.15157 -0.82719,1.97877 0.17841,1.60571 1.20023,3.03302 1.03804,1.42731 2.15719,2.46535 -0.37305,-0.14598 -1.18402,-0.35683 -0.79476,-0.21085 -1.18402,-0.30817 0.25951,0.56768 0.68122,1.1678 0.43792,0.60011 0.82719,1.07048 1.11914,1.47596 1.11914,3.32497 0,2.98437 -2.4978,4.62253 0.92452,1.55706 2.3356,2.70863 0.24329,0.19464 0.48658,0.43793 2.6762,2.40047 2.96815,5.88764 z"
       id="path420"
       style="font-size:40px;line-height:1.25;font-family:'Chess Leipzig';-inkscape-font-specification:'Chess Leipzig';white-space:pre;stroke-width:0.830433" />
  </g>
</svg>
